<svg viewBox="0 0 800 500" xmlns="http://www.w3.org/2000/svg">
  <defs>
    <!-- Gradients for 3D effect -->
    <linearGradient id="nodeGradient" x1="0%" y1="0%" x2="100%" y2="100%">
      <stop offset="0%" style="stop-color:#8B5CF6;stop-opacity:1" />
      <stop offset="50%" style="stop-color:#A855F7;stop-opacity:1" />
      <stop offset="100%" style="stop-color:#7C3AED;stop-opacity:1" />
    </linearGradient>
    
    <linearGradient id="centralBrainGradient" x1="0%" y1="0%" x2="100%" y2="100%">
      <stop offset="0%" style="stop-color:#06D6A0;stop-opacity:1" />
      <stop offset="50%" style="stop-color:#00D9DA;stop-opacity:1" />
      <stop offset="100%" style="stop-color:#059669;stop-opacity:1" />
    </linearGradient>
    
    <linearGradient id="growthGradient" x1="0%" y1="100%" x2="0%" y2="0%">
      <stop offset="0%" style="stop-color:#10B981;stop-opacity:1" />
      <stop offset="100%" style="stop-color:#34D399;stop-opacity:1" />
    </linearGradient>
    
    <linearGradient id="connectionGradient" x1="0%" y1="0%" x2="100%" y2="0%">
      <stop offset="0%" style="stop-color:#6366F1;stop-opacity:0.8" />
      <stop offset="50%" style="stop-color:#8B5CF6;stop-opacity:0.6" />
      <stop offset="100%" style="stop-color:#06D6A0;stop-opacity:0.8" />
    </linearGradient>
    
    <radialGradient id="glowEffect" cx="50%" cy="50%" r="50%">
      <stop offset="0%" style="stop-color:#ffffff;stop-opacity:0.3" />
      <stop offset="100%" style="stop-color:#ffffff;stop-opacity:0" />
    </radialGradient>
    
    <!-- Filters for glow and blur effects -->
    <filter id="glow" x="-20%" y="-20%" width="140%" height="140%">
      <feGaussianBlur stdDeviation="3" result="coloredBlur"/>
      <feMerge> 
        <feMergeNode in="coloredBlur"/>
        <feMergeNode in="SourceGraphic"/>
      </feMerge>
    </filter>
    
    <filter id="shadow" x="-20%" y="-20%" width="140%" height="140%">
      <feDropShadow dx="2" dy="4" stdDeviation="3" flood-color="#000" flood-opacity="0.3"/>
    </filter>
  </defs>
  
  <!-- Background with subtle pattern -->
  <rect width="800" height="500" fill="url(#glowEffect)" opacity="0.1"/>
  
  <!-- Dynamic connection lines between nodes -->
  <g stroke="url(#connectionGradient)" stroke-width="2" fill="none" opacity="0.7">
    <path d="M150,200 Q400,100 650,200" filter="url(#glow)">
      <animate attributeName="stroke-dasharray" values="0,1000;20,980;0,1000" dur="4s" repeatCount="indefinite"/>
    </path>
    <path d="M200,350 Q400,250 600,350" filter="url(#glow)">
      <animate attributeName="stroke-dasharray" values="0,800;15,785;0,800" dur="3.5s" repeatCount="indefinite"/>
    </path>
    <path d="M100,120 Q250,200 400,250" filter="url(#glow)">
      <animate attributeName="stroke-dasharray" values="0,600;10,590;0,600" dur="3s" repeatCount="indefinite"/>
    </path>
    <path d="M700,120 Q550,200 400,250" filter="url(#glow)">
      <animate attributeName="stroke-dasharray" values="0,600;10,590;0,600" dur="3.2s" repeatCount="indefinite"/>
    </path>
  </g>
  
  <!-- Central AI Brain/Hub -->
  <g transform="translate(400,250)">
    <circle cx="0" cy="0" r="50" fill="url(#centralBrainGradient)" filter="url(#shadow)">
      <animate attributeName="r" values="50;55;50" dur="2s" repeatCount="indefinite"/>
    </circle>
    <circle cx="0" cy="0" r="35" fill="none" stroke="#ffffff" stroke-width="2" opacity="0.6">
      <animate attributeName="stroke-dasharray" values="0,220;110,110;0,220" dur="3s" repeatCount="indefinite"/>
    </circle>
    <!-- Neural network pattern inside -->
    <g stroke="#ffffff" stroke-width="1.5" fill="#ffffff" opacity="0.8">
      <circle cx="-15" cy="-10" r="3"/>
      <circle cx="15" cy="-10" r="3"/>
      <circle cx="0" cy="10" r="3"/>
      <circle cx="-8" cy="20" r="2"/>
      <circle cx="8" cy="20" r="2"/>
      <line x1="-15" y1="-10" x2="0" y2="10"/>
      <line x1="15" y1="-10" x2="0" y2="10"/>
      <line x1="0" y1="10" x2="-8" y2="20"/>
      <line x1="0" y1="10" x2="8" y2="20"/>
    </g>
  </g>
  
  <!-- Business Growth Nodes -->
  <!-- Revenue Growth -->
  <g transform="translate(150,200)">
    <circle cx="0" cy="0" r="25" fill="url(#nodeGradient)" filter="url(#shadow)"/>
    <g transform="scale(0.8)" fill="#ffffff">
      <path d="M-15,10 L-5,0 L5,5 L15,-5" stroke="#ffffff" stroke-width="2" fill="none"/>
      <polygon points="-18,12 -12,7 -12,13"/>
      <text x="0" y="20" text-anchor="middle" font-size="8" fill="#ffffff">Revenue</text>
    </g>
  </g>
  
  <!-- Efficiency Node -->
  <g transform="translate(650,200)">
    <circle cx="0" cy="0" r="25" fill="url(#nodeGradient)" filter="url(#shadow)"/>
    <g transform="scale(0.8)" fill="#ffffff">
      <circle cx="0" cy="0" r="8" fill="none" stroke="#ffffff" stroke-width="2"/>
      <path d="M-5,-5 L5,5 M5,-5 L-5,5"/>
      <text x="0" y="20" text-anchor="middle" font-size="8" fill="#ffffff">Efficiency</text>
    </g>
  </g>
  
  <!-- Innovation Node -->
  <g transform="translate(100,120)">
    <circle cx="0" cy="0" r="20" fill="url(#nodeGradient)" filter="url(#shadow)"/>
    <g fill="#ffffff">
      <polygon points="0,-8 -6,4 6,4" transform="scale(0.7)"/>
      <circle cx="0" cy="6" r="2" transform="scale(0.7)"/>
      <text x="0" y="16" text-anchor="middle" font-size="7" fill="#ffffff">Innovation</text>
    </g>
  </g>
  
  <!-- Scale Node -->
  <g transform="translate(700,120)">
    <circle cx="0" cy="0" r="20" fill="url(#nodeGradient)" filter="url(#shadow)"/>
    <g fill="#ffffff" transform="scale(0.6)">
      <rect x="-8" y="2" width="4" height="8"/>
      <rect x="-2" y="-2" width="4" height="12"/>
      <rect x="4" y="-6" width="4" height="16"/>
      <text x="0" y="20" text-anchor="middle" font-size="7" fill="#ffffff">Scale</text>
    </g>
  </g>
  
  <!-- Customer Success Node -->
  <g transform="translate(200,350)">
    <circle cx="0" cy="0" r="22" fill="url(#nodeGradient)" filter="url(#shadow)"/>
    <g fill="#ffffff" transform="scale(0.7)">
      <circle cx="0" cy="-3" r="4"/>
      <path d="M-6,2 Q0,8 6,2 Q0,12 -6,2"/>
      <text x="0" y="18" text-anchor="middle" font-size="7" fill="#ffffff">Customers</text>
    </g>
  </g>
  
  <!-- Data Intelligence Node -->
  <g transform="translate(600,350)">
    <circle cx="0" cy="0" r="22" fill="url(#nodeGradient)" filter="url(#shadow)"/>
    <g fill="#ffffff" transform="scale(0.7)">
      <rect x="-8" y="-6" width="16" height="2"/>
      <rect x="-6" y="-2" width="12" height="2"/>
      <rect x="-8" y="2" width="16" height="2"/>
      <rect x="-4" y="6" width="8" height="2"/>
      <text x="0" y="18" text-anchor="middle" font-size="7" fill="#ffffff">Intelligence</text>
    </g>
  </g>
  
  <!-- Floating Data Particles -->
  <g opacity="0.6">
    <circle cx="320" cy="180" r="2" fill="#06D6A0">
      <animateTransform attributeName="transform" type="translate" values="0,0; 20,-10; 0,0" dur="3s" repeatCount="indefinite"/>
    </circle>
    <circle cx="480" cy="320" r="1.5" fill="#8B5CF6">
      <animateTransform attributeName="transform" type="translate" values="0,0; -15,15; 0,0" dur="4s" repeatCount="indefinite"/>
    </circle>
    <circle cx="250" cy="280" r="2.5" fill="#F59E0B">
      <animateTransform attributeName="transform" type="translate" values="0,0; 10,20; 0,0" dur="2.5s" repeatCount="indefinite"/>
    </circle>
    <circle cx="550" cy="180" r="2" fill="#EF4444">
      <animateTransform attributeName="transform" type="translate" values="0,0; -20,-5; 0,0" dur="3.5s" repeatCount="indefinite"/>
    </circle>
  </g>
  
  <!-- Growth Arrow -->
  <g transform="translate(50,420)" fill="url(#growthGradient)" filter="url(#glow)">
    <path d="M0,0 L150,-80 L130,-70 L150,-80 L140,-100" stroke="url(#growthGradient)" stroke-width="3" fill="none"/>
    <polygon points="140,-105 155,-85 145,-85"/>
  </g>
  
  <!-- Success Metrics Display -->
  <g transform="translate(580,80)" fill="#10B981" font-family="Arial, sans-serif">
    <text x="0" y="0" font-size="12" font-weight="bold">10x</text>
    <text x="0" y="15" font-size="8">Faster</text>
    <circle cx="40" cy="-5" r="15" fill="none" stroke="#10B981" stroke-width="2" opacity="0.7">
      <animate attributeName="stroke-dasharray" values="0,94;47,47;0,94" dur="2s" repeatCount="indefinite"/>
    </circle>
  </g>
  
  <!-- Autonomous Indicators -->
  <g opacity="0.8">
    <circle cx="120" cy="300" r="8" fill="#06D6A0" opacity="0.6">
      <animate attributeName="opacity" values="0.6;1;0.6" dur="1.5s" repeatCount="indefinite"/>
    </circle>
    <circle cx="680" cy="280" r="6" fill="#8B5CF6" opacity="0.6">
      <animate attributeName="opacity" values="0.6;1;0.6" dur="2s" repeatCount="indefinite"/>
    </circle>
    <circle cx="400" cy="400" r="5" fill="#F59E0B" opacity="0.6">
      <animate attributeName="opacity" values="0.6;1;0.6" dur="1.8s" repeatCount="indefinite"/>
    </circle>
  </g>
</svg>