<svg viewBox="0 0 800 600" xmlns="http://www.w3.org/2000/svg">
  <defs>
    <!-- Gradients -->
    <linearGradient id="primaryGrad3" x1="0%" y1="0%" x2="100%" y2="100%">
      <stop offset="0%" style="stop-color:#6C63FF;stop-opacity:1" />
      <stop offset="100%" style="stop-color:#956fff;stop-opacity:1" />
    </linearGradient>
    
    <linearGradient id="secondaryGrad3" x1="0%" y1="0%" x2="100%" y2="100%">
      <stop offset="0%" style="stop-color:#00D9DA;stop-opacity:1" />
      <stop offset="100%" style="stop-color:#19f8f9;stop-opacity:1" />
    </linearGradient>
    
    <linearGradient id="accentGrad3" x1="0%" y1="0%" x2="100%" y2="100%">
      <stop offset="0%" style="stop-color:#FF6584;stop-opacity:1" />
      <stop offset="100%" style="stop-color:#ff8ca1;stop-opacity:1" />
    </linearGradient>
    
    <!-- Glow filters -->
    <filter id="glow3">
      <feGaussianBlur stdDeviation="5" result="coloredBlur"/>
      <feMerge> 
        <feMergeNode in="coloredBlur"/>
        <feMergeNode in="SourceGraphic"/>
      </feMerge>
    </filter>
  </defs>
  
  <!-- Background -->
  <rect width="800" height="600" fill="#13111C"/>
  
  <!-- Transformation Spiral -->
  <g transform="translate(400,300)">
    <!-- Spiral path background -->
    <path d="M 0,0 
             Q 50,-50 100,0 
             Q 150,50 100,100 
             Q 50,150 0,100 
             Q -50,50 0,0
             Q 25,-25 50,0
             Q 75,25 50,50
             Q 25,75 0,50
             Q -25,25 0,0"
          fill="none" 
          stroke="url(#primaryGrad3)" 
          stroke-width="3" 
          opacity="0.3"/>
    
    <!-- Central transformation core -->
    <g>
      <circle r="30" fill="url(#primaryGrad3)" filter="url(#glow3)" opacity="0.9">
        <animate attributeName="r" values="30;35;30" dur="4s" repeatCount="indefinite"/>
      </circle>
      
      <!-- Core symbol -->
      <g stroke="white" stroke-width="2" fill="none" opacity="0.8">
        <path d="M -15,-15 L 15,15 M 15,-15 L -15,15"/>
        <circle cx="0" cy="0" r="10"/>
        <circle cx="0" cy="0" r="5" fill="white"/>
      </g>
    </g>
    
    <!-- Orbiting Elements representing transformation stages -->
    <!-- Stage 1: Discovery -->
    <g>
      <circle r="6" fill="url(#secondaryGrad3)" filter="url(#glow3)">
        <animateMotion dur="6s" repeatCount="indefinite" rotate="auto">
          <path d="M 60,0 A 60,60 0 1,1 -60,0 A 60,60 0 1,1 60,0"/>
        </animateMotion>
      </circle>
      <text font-family="Arial, sans-serif" font-size="10" fill="white" text-anchor="middle" opacity="0.8">
        <animateMotion dur="6s" repeatCount="indefinite" rotate="auto">
          <path d="M 75,0 A 75,75 0 1,1 -75,0 A 75,75 0 1,1 75,0"/>
        </animateMotion>
        Discover
      </text>
    </g>
    
    <!-- Stage 2: Design -->
    <g>
      <rect width="12" height="12" fill="url(#accentGrad3)" filter="url(#glow3)" rx="2" transform="translate(-6,-6)">
        <animateMotion dur="8s" repeatCount="indefinite" rotate="auto">
          <path d="M 100,0 A 100,100 0 1,1 -100,0 A 100,100 0 1,1 100,0"/>
        </animateMotion>
      </rect>
      <text font-family="Arial, sans-serif" font-size="10" fill="white" text-anchor="middle" opacity="0.8">
        <animateMotion dur="8s" repeatCount="indefinite" rotate="auto">
          <path d="M 115,0 A 115,115 0 1,1 -115,0 A 115,115 0 1,1 115,0"/>
        </animateMotion>
        Design
      </text>
    </g>
    
    <!-- Stage 3: Deploy -->
    <g>
      <polygon points="0,-8 7,4 -7,4" fill="url(#primaryGrad3)" filter="url(#glow3)">
        <animateMotion dur="10s" repeatCount="indefinite" rotate="auto">
          <path d="M 140,0 A 140,140 0 1,1 -140,0 A 140,140 0 1,1 140,0"/>
        </animateMotion>
      </polygon>
      <text font-family="Arial, sans-serif" font-size="10" fill="white" text-anchor="middle" opacity="0.8">
        <animateMotion dur="10s" repeatCount="indefinite" rotate="auto">
          <path d="M 155,0 A 155,155 0 1,1 -155,0 A 155,155 0 1,1 155,0"/>
        </animateMotion>
        Deploy
      </text>
    </g>
    
    <!-- Stage 4: Evolve -->
    <g>
      <circle r="6" fill="url(#secondaryGrad3)" filter="url(#glow3)">
        <animateMotion dur="12s" repeatCount="indefinite" rotate="auto">
          <path d="M 180,0 A 180,180 0 1,1 -180,0 A 180,180 0 1,1 180,0"/>
        </animateMotion>
      </circle>
      <text font-family="Arial, sans-serif" font-size="10" fill="white" text-anchor="middle" opacity="0.8">
        <animateMotion dur="12s" repeatCount="indefinite" rotate="auto">
          <path d="M 195,0 A 195,195 0 1,1 -195,0 A 195,195 0 1,1 195,0"/>
        </animateMotion>
        Evolve
      </text>
    </g>
  </g>
  
  <!-- Business Nodes -->
  <!-- Finance -->
  <g transform="translate(150,120)">
    <circle r="20" fill="url(#secondaryGrad3)" filter="url(#glow3)" opacity="0.8"/>
    <text font-family="Arial, sans-serif" font-size="12" fill="white" text-anchor="middle" dy="4">$</text>
    <text font-family="Arial, sans-serif" font-size="8" fill="white" text-anchor="middle" dy="35">Finance</text>
  </g>
  
  <!-- Healthcare -->
  <g transform="translate(650,120)">
    <circle r="20" fill="url(#accentGrad3)" filter="url(#glow3)" opacity="0.8"/>
    <text font-family="Arial, sans-serif" font-size="12" fill="white" text-anchor="middle" dy="4">+</text>
    <text font-family="Arial, sans-serif" font-size="8" fill="white" text-anchor="middle" dy="35">Healthcare</text>
  </g>
  
  <!-- Retail -->
  <g transform="translate(150,480)">
    <circle r="20" fill="url(#primaryGrad3)" filter="url(#glow3)" opacity="0.8"/>
    <text font-family="Arial, sans-serif" font-size="12" fill="white" text-anchor="middle" dy="4">🛒</text>
    <text font-family="Arial, sans-serif" font-size="8" fill="white" text-anchor="middle" dy="35">Retail</text>
  </g>
  
  <!-- Manufacturing -->
  <g transform="translate(650,480)">
    <circle r="20" fill="url(#secondaryGrad3)" filter="url(#glow3)" opacity="0.8"/>
    <text font-family="Arial, sans-serif" font-size="12" fill="white" text-anchor="middle" dy="4">⚙</text>
    <text font-family="Arial, sans-serif" font-size="8" fill="white" text-anchor="middle" dy="35">Manufacturing</text>
  </g>
  
  <!-- Connection lines from center to business nodes -->
  <g stroke-width="1" opacity="0.4">
    <line x1="400" y1="300" x2="150" y2="120" stroke="url(#secondaryGrad3)">
      <animate attributeName="opacity" values="0.4;0.8;0.4" dur="5s" repeatCount="indefinite"/>
    </line>
    <line x1="400" y1="300" x2="650" y2="120" stroke="url(#accentGrad3)">
      <animate attributeName="opacity" values="0.4;0.8;0.4" dur="6s" repeatCount="indefinite"/>
    </line>
    <line x1="400" y1="300" x2="150" y2="480" stroke="url(#primaryGrad3)">
      <animate attributeName="opacity" values="0.4;0.8;0.4" dur="7s" repeatCount="indefinite"/>
    </line>
    <line x1="400" y1="300" x2="650" y2="480" stroke="url(#secondaryGrad3)">
      <animate attributeName="opacity" values="0.4;0.8;0.4" dur="8s" repeatCount="indefinite"/>
    </line>
  </g>
  
  <!-- Data Flow Visualization -->
  <g opacity="0.6">
    <!-- Flowing data from business nodes to center -->
    <circle r="3" fill="url(#secondaryGrad3)">
      <animateMotion dur="4s" repeatCount="indefinite">
        <path d="M 150,120 Q 275,210 400,300"/>
      </animateMotion>
    </circle>
    
    <circle r="3" fill="url(#accentGrad3)">
      <animateMotion dur="5s" repeatCount="indefinite">
        <path d="M 650,120 Q 525,210 400,300"/>
      </animateMotion>
    </circle>
    
    <circle r="3" fill="url(#primaryGrad3)">
      <animateMotion dur="6s" repeatCount="indefinite">
        <path d="M 150,480 Q 275,390 400,300"/>
      </animateMotion>
    </circle>
    
    <circle r="3" fill="url(#secondaryGrad3)">
      <animateMotion dur="7s" repeatCount="indefinite">
        <path d="M 650,480 Q 525,390 400,300"/>
      </animateMotion>
    </circle>
  </g>
  
  <!-- Ambient Effects -->
  <g opacity="0.3">
    <!-- Floating particles -->
    <circle cx="100" cy="200" r="2" fill="url(#primaryGrad3)">
      <animate attributeName="cy" values="200;180;200" dur="8s" repeatCount="indefinite"/>
      <animate attributeName="opacity" values="0.3;0.8;0.3" dur="8s" repeatCount="indefinite"/>
    </circle>
    
    <circle cx="700" cy="400" r="2" fill="url(#secondaryGrad3)">
      <animate attributeName="cy" values="400;380;400" dur="10s" repeatCount="indefinite"/>
      <animate attributeName="opacity" values="0.3;0.8;0.3" dur="10s" repeatCount="indefinite"/>
    </circle>
    
    <circle cx="300" cy="100" r="2" fill="url(#accentGrad3)">
      <animate attributeName="cy" values="100;80;100" dur="12s" repeatCount="indefinite"/>
      <animate attributeName="opacity" values="0.3;0.8;0.3" dur="12s" repeatCount="indefinite"/>
    </circle>
    
    <circle cx="500" cy="500" r="2" fill="url(#primaryGrad3)">
      <animate attributeName="cy" values="500;480;500" dur="14s" repeatCount="indefinite"/>
      <animate attributeName="opacity" values="0.3;0.8;0.3" dur="14s" repeatCount="indefinite"/>
    </circle>
  </g>
  
  <!-- Outer energy field -->
  <circle cx="400" cy="300" r="250" fill="none" stroke="url(#primaryGrad3)" stroke-width="1" opacity="0.1">
    <animate attributeName="r" values="250;270;250" dur="20s" repeatCount="indefinite"/>
  </circle>
</svg>