<?xml version="1.0" encoding="UTF-8" standalone="no"?>
<!-- Created with Inkscape (http://www.inkscape.org/) -->

<svg
   width="278.06357mm"
   height="261.57745mm"
   viewBox="0 0 278.06357 261.57745"
   version="1.1"
   id="svg5"
   xml:space="preserve"
   inkscape:export-filename="branded wallet icon - colored.png"
   inkscape:export-xdpi="96"
   inkscape:export-ydpi="96"
   inkscape:version="1.2.2 (732a01da63, 2022-12-09)"
   sodipodi:docname="branded wallet icon - colored.svg"
   xmlns:inkscape="http://www.inkscape.org/namespaces/inkscape"
   xmlns:sodipodi="http://sodipodi.sourceforge.net/DTD/sodipodi-0.dtd"
   xmlns="http://www.w3.org/2000/svg"
   xmlns:svg="http://www.w3.org/2000/svg"><sodipodi:namedview
     id="namedview7"
     pagecolor="#ffffff"
     bordercolor="#000000"
     borderopacity="0.25"
     inkscape:showpageshadow="2"
     inkscape:pageopacity="0.0"
     inkscape:pagecheckerboard="0"
     inkscape:deskcolor="#d1d1d1"
     inkscape:document-units="mm"
     showgrid="false"
     inkscape:zoom="0.73851712"
     inkscape:cx="297.21721"
     inkscape:cy="479.33892"
     inkscape:window-width="1848"
     inkscape:window-height="987"
     inkscape:window-x="549"
     inkscape:window-y="26"
     inkscape:window-maximized="0"
     inkscape:current-layer="layer1" /><defs
     id="defs2" /><g
     inkscape:label="Layer 1"
     inkscape:groupmode="layer"
     id="layer1"
     transform="translate(20.805004,-23.264353)"><rect
       style="fill:#8e6dff;fill-opacity:1;stroke:#4cbdee;stroke-width:0.796928"
       id="rect2761"
       width="277.26663"
       height="260.78052"
       x="-20.40654"
       y="23.662817"
       ry="37.468464" /><path
       style="fill:#ffffff;stroke:#ffffff;stroke-width:0.264583"
       d="m 50.459893,231.16888 c -4.148791,-0.91872 -7.123099,-2.5728 -10.193541,-5.66886 -2.572007,-2.59346 -3.985165,-5.01086 -5.204211,-8.9025 l -0.741831,-2.36819 -0.07257,-41.25919 -0.07257,-41.2592 0.687511,-1.40522 c 1.677432,-3.42854 6.4144,-3.73926 8.519306,-0.55881 l 0.7279,1.09983 0.132895,40.89754 c 0.122923,37.82811 0.167164,40.99773 0.589476,42.23243 0.924779,2.70376 2.930027,5.01345 5.551984,6.39491 l 1.398561,0.73687 68.791657,0.0775 c 63.63275,0.0717 68.91715,0.0443 70.46491,-0.36542 3.52164,-0.93216 6.46701,-4.23259 7.19285,-8.05993 0.15077,-0.79496 0.26203,-6.92273 0.26203,-14.43075 V 185.2808 L 182.6854,185.194 c -17.16081,-0.0943 -16.55401,-0.0458 -20.49656,-1.63824 -4.83546,-1.95313 -8.82314,-5.79141 -11.17587,-10.75716 -2.52562,-5.33065 -2.94635,-12.18619 -1.08393,-17.66192 2.34422,-6.89232 7.0929,-11.62994 14.03709,-14.0044 2.90082,-0.99189 5.18012,-1.11853 20.13272,-1.11853 h 14.4059 l -0.0353,-11.44322 c -0.0404,-13.10001 -0.19603,-15.48459 -1.14635,-17.56036 -0.9334,-2.03881 -3.3127,-4.34541 -5.31313,-5.15078 l -1.58555,-0.63834 -42.06875,-0.13229 c -42.02552,-0.13216 -42.06983,-0.13286 -43.12708,-0.68503 -2.43525,-1.27184 -3.5036,-4.598221 -2.19376,-6.830447 0.33345,-0.568249 1.06381,-1.401686 1.62303,-1.852084 l 1.01678,-0.818901 h 43.03635 43.03635 l 2.51354,0.873416 c 6.90629,2.399824 11.65768,7.448126 13.79033,14.652066 0.5486,1.85316 0.57867,2.54128 0.69443,15.89379 l 0.121,13.95677 h 0.81567 c 2.03956,0 4.64022,2.18836 5.18855,4.36598 0.19815,0.78692 0.2921,6.68102 0.2921,18.32592 0,19.41452 0.0601,18.78702 -1.97801,20.66565 -0.90169,0.83115 -1.48601,1.12268 -2.7477,1.3709 l -1.60248,0.31527 -0.0853,13.92449 c -0.0933,15.23114 -0.0216,14.46446 -1.78004,19.01716 -1.22713,3.17705 -2.59641,5.302 -4.90253,7.60812 -2.40157,2.40157 -4.60427,3.78933 -7.67371,4.83463 l -2.11667,0.72083 -70.11458,0.0466 c -57.464033,0.0382 -70.401001,-0.0168 -71.702073,-0.30495 z m 154.384367,-68.5333 v -12.30313 l -17.39635,0.004 c -18.48664,0.004 -19.27734,0.0514 -21.72249,1.29886 -6.16853,3.14695 -8.48876,10.78097 -5.16476,16.99312 1.52182,2.8441 4.672,5.30995 7.69132,6.0205 0.55321,0.13019 9.01278,0.24866 18.79905,0.26328 l 17.79323,0.0266 z m -35.39186,4.49218 c -3.18709,-1.61742 -3.80629,-5.44804 -1.28774,-7.96658 2.59594,-2.59594 6.76659,-1.95279 8.33407,1.2852 1.56324,3.22921 -0.56976,6.90008 -4.21265,7.24991 -1.20717,0.11592 -1.66662,0.0238 -2.83368,-0.56853 z M 49.666143,123.10891 c -2.638216,-0.68003 -4.605036,-3.06113 -4.638463,-5.61548 -0.0046,-0.34692 0.55414,-4.35492 1.241512,-8.90666 l 1.249764,-8.2759 -5.988663,-6.011599 c -4.258318,-4.27463 -6.144318,-6.355622 -6.527369,-7.202231 -1.007504,-2.226762 -0.594018,-5.04119 0.985068,-6.704959 1.413319,-1.489115 2.220013,-1.699255 10.817883,-2.818022 4.481915,-0.583194 8.245168,-1.060352 8.362791,-1.060352 0.117621,0 1.912633,-3.483419 3.988919,-7.740932 3.359356,-6.888506 3.912502,-7.861911 5.023159,-8.839549 2.547197,-2.242132 6.132052,-2.092754 8.411964,0.350523 0.38586,0.413509 2.440085,4.234412 4.564943,8.490896 2.124858,4.256484 4.011811,7.739242 4.193225,7.739462 0.181417,2.2e-4 3.90121,0.48001 8.266208,1.066199 8.811444,1.183317 9.704821,1.44653 11.005906,3.242625 1.41771,1.957086 1.65283,4.431149 0.60508,6.36692 -0.27354,0.505375 -3.176253,3.678552 -6.450471,7.051505 -3.274219,3.372951 -5.987,6.223514 -6.028402,6.334584 -0.0414,0.11106 0.53176,3.82101 1.273699,8.24433 1.481701,8.83368 1.496857,9.48398 0.266258,11.42443 -1.1036,1.7402 -2.857695,2.7012 -4.932695,2.70242 -1.550186,8e-4 -1.933527,-0.15674 -9.421945,-3.87512 l -7.806014,-3.87609 -4.865553,2.49295 c -11.107837,5.69128 -11.672045,5.91619 -13.596804,5.42005 z m 12.001909,-16.09176 c 6.553377,-3.41459 6.111745,-3.41029 12.841462,-0.12499 2.749793,1.34239 5.051663,2.38867 5.115266,2.32506 0.06361,-0.0636 -0.251624,-2.35799 -0.700508,-5.09864 -0.448885,-2.74065 -0.815989,-5.373775 -0.815787,-5.851393 7.93e-4,-1.702347 0.755152,-2.776516 4.801165,-6.835923 l 3.986954,-4.000148 -0.888148,-0.160501 c -0.488482,-0.08828 -2.793148,-0.404281 -5.121482,-0.702236 -4.788092,-0.612727 -6.066506,-0.992772 -7.15248,-2.126287 -0.418108,-0.436409 -1.840355,-2.933861 -3.160554,-5.549897 l -2.400361,-4.756428 -2.37455,4.79035 c -2.489637,5.022517 -3.719492,6.617335 -5.368928,6.962182 -0.719455,0.150416 -10.415251,1.473325 -10.798214,1.473325 -0.11448,0 1.594337,1.81607 3.797371,4.035713 2.203032,2.21964 4.132805,4.370517 4.288385,4.779724 0.155581,0.409204 0.281655,1.301805 0.280165,1.983557 -0.0021,1.014532 -0.784474,6.677742 -1.459492,10.566112 -0.0821,0.47294 -0.07107,0.85989 0.02453,0.85989 0.09559,0 2.392934,-1.15626 5.105217,-2.56947 z"
       id="path2707" /></g></svg>
