<?xml version="1.0" encoding="UTF-8" standalone="no"?>
<!-- Created with Inkscape (http://www.inkscape.org/) -->

<svg
   width="278.06357mm"
   height="261.57745mm"
   viewBox="0 0 278.06357 261.57745"
   version="1.1"
   id="svg5"
   xml:space="preserve"
   inkscape:export-filename="..\..\..\web_dev_2025\websites\rock8.io image ideas\intelligence_everywhere.png"
   inkscape:export-xdpi="96"
   inkscape:export-ydpi="96"
   inkscape:version="1.2.2 (732a01da63, 2022-12-09)"
   sodipodi:docname="intelligence_everywhere.svg"
   xmlns:inkscape="http://www.inkscape.org/namespaces/inkscape"
   xmlns:sodipodi="http://sodipodi.sourceforge.net/DTD/sodipodi-0.dtd"
   xmlns="http://www.w3.org/2000/svg"
   xmlns:svg="http://www.w3.org/2000/svg"><sodipodi:namedview
     id="namedview7"
     pagecolor="#ffffff"
     bordercolor="#000000"
     borderopacity="0.25"
     inkscape:showpageshadow="2"
     inkscape:pageopacity="0.0"
     inkscape:pagecheckerboard="0"
     inkscape:deskcolor="#d1d1d1"
     inkscape:document-units="mm"
     showgrid="false"
     inkscape:zoom="0.36925856"
     inkscape:cx="1161.7876"
     inkscape:cy="414.34381"
     inkscape:window-width="1848"
     inkscape:window-height="987"
     inkscape:window-x="438"
     inkscape:window-y="4"
     inkscape:window-maximized="0"
     inkscape:current-layer="layer1" /><defs
     id="defs2" /><g
     inkscape:label="Layer 1"
     inkscape:groupmode="layer"
     id="layer1"
     transform="translate(20.805004,-23.264353)"><rect
       style="fill:#8e6dff;fill-opacity:1;stroke:#4cbdee;stroke-width:0.796928"
       id="rect2761"
       width="277.26663"
       height="260.78052"
       x="-20.40654"
       y="23.662817"
       ry="37.468464" /><path
       style="fill:#ffffff;stroke:#ffffff;stroke-width:0.281536"
       d="m 117.14939,251.64974 c -0.80936,-0.44272 -14.24698,-8.30263 -24.763903,-14.48489 -4.014314,-2.35975 -7.420595,-4.55166 -7.742244,-4.98204 -0.531462,-0.71106 -0.580761,-1.24045 -0.659726,-7.08322 -0.04693,-3.47308 -0.14316,-6.31472 -0.213772,-6.31472 -0.07065,0 -2.566056,1.47038 -5.545389,3.26752 -8.989711,5.42262 -8.241805,5.31017 -13.876194,2.08609 -14.885659,-8.51784 -27.874638,-16.28881 -28.394129,-16.98746 -0.583741,-0.78505 -0.591626,-1.00573 -0.646861,-18.15909 L 35.251312,171.62755 22.6381,164.27623 C 15.700849,160.233 9.5181435,156.47237 8.8987674,155.9193 l -1.1261412,-1.0056 v -18.87632 -18.87632 l 0.8446086,-0.8143 c 0.464532,-0.44788 7.8759772,-4.90865 16.4698632,-9.91283 15.184343,-8.841782 15.672924,-9.10142 17.314481,-9.201198 l 1.689218,-0.102684 12.864343,7.457252 12.864377,7.45726 7.054309,-3.97804 7.054342,-3.97804 V 87.242849 c 0,-17.809075 0.01319,-18.002215 1.298415,-19.119652 0.292375,-0.254162 2.368596,-1.533792 4.613846,-2.84362 2.245249,-1.309828 8.959884,-5.233569 14.921411,-8.719427 5.96154,-3.485858 11.37252,-6.608752 12.02444,-6.939763 2.05116,-1.041468 3.1844,-0.842019 6.84505,1.204701 8.3619,4.675258 28.931,16.790945 29.58568,17.426687 0.40415,0.392439 0.8159,1.118957 0.91499,1.614487 0.0991,0.495524 0.18126,8.39158 0.18256,17.546785 l 0.003,16.645823 7.09506,4.04995 7.09505,4.04995 1.39087,-0.78185 c 0.76499,-0.43001 6.53457,-3.81284 12.82131,-7.51738 l 11.4305,-6.735535 1.68922,0.110286 c 1.59498,0.104131 2.14458,0.374021 9.85377,4.838859 17.21754,9.97168 23.10841,13.46435 23.73905,14.07479 0.35921,0.34768 0.76794,1.1272 0.90828,1.73225 0.3544,1.5279 0.34142,35.17411 -0.0141,36.4538 -0.15375,0.55346 -0.5648,1.27421 -0.91343,1.60169 -0.34864,0.32747 -6.27163,3.91173 -13.16224,7.96504 -6.89059,4.05331 -12.683,7.49412 -12.87202,7.64626 -0.2622,0.211 -0.36232,4.35828 -0.42231,17.49307 -0.0735,16.1024 -0.11177,17.26525 -0.59043,17.97044 -0.33174,0.4887 -6.07691,3.9987 -16.32911,9.97624 -14.77423,8.61409 -15.91941,9.22948 -17.36574,9.33166 l -1.54845,0.1094 -6.33456,-3.91022 -6.33457,-3.91022 -0.14077,6.40357 c -0.16813,7.64759 0.0425,7.1664 -4.24239,9.69498 -27.51529,16.23752 -29.07249,17.11201 -30.66809,17.22205 -0.96914,0.0668 -1.8118,-0.0373 -2.2523,-0.27821 z m 16.32909,-14.52724 14.21758,-8.40181 v -16.39567 -16.39567 l -10.83915,-6.34817 c -5.96152,-3.49149 -12.40445,-7.21705 -14.31757,-8.279 l -3.47841,-1.93085 -2.85616,1.59968 c -1.57086,0.87983 -6.65687,3.83573 -11.30221,6.56867 -4.64535,2.73293 -9.809036,5.76238 -11.474887,6.73208 l -3.028769,1.7631 0.07268,16.36165 0.07268,16.36166 4.786108,2.80998 c 2.63237,1.54548 9.030278,5.30914 14.217578,8.36368 5.18731,3.05453 9.49481,5.56244 9.57223,5.57309 0.0775,0.0107 6.53868,-3.76143 14.35836,-8.38242 z m -56.59241,-21.49379 7.045159,-4.28231 -0.07193,-24.05108 -0.07193,-24.05108 -6.870694,-3.84843 -6.870704,-3.84843 -12.555326,7.20995 c -6.905403,3.96546 -13.347093,7.64442 -14.31488,8.17545 l -1.759594,0.96552 v 15.80566 15.80567 l 14.006425,8.19391 c 7.703533,4.50666 14.099107,8.19696 14.212366,8.20069 0.113292,0.003 3.376297,-1.92024 7.251132,-4.27552 z m 105.97105,-4.02301 13.96977,-8.16455 -0.0719,-15.76573 -0.0717,-15.76574 -12.24682,-7.11119 c -6.73574,-3.91117 -13.07504,-7.59505 -14.08727,-8.18642 l -1.84043,-1.07522 -7.02796,3.8608 -7.02794,3.86079 -0.0721,23.97264 -0.072,23.97264 1.76118,1.11637 c 6.15298,3.90023 12.22486,7.54458 12.49761,7.5011 0.1758,-0.0279 6.606,-3.72499 14.28934,-8.21549 z m -80.4918,-29.84924 c 6.45408,-3.79722 12.23075,-7.15711 12.83707,-7.46644 l 1.10239,-0.56239 v -6.4696 c 0,-4.38081 -0.0966,-6.46961 -0.29927,-6.46961 -0.1646,0 -0.99009,-0.33826 -1.83439,-0.75168 -1.92827,-0.94417 -4.14303,-3.26248 -5.13113,-5.37099 -0.66575,-1.42056 -0.75899,-1.96554 -0.75899,-4.43494 0,-2.54298 0.0799,-2.97879 0.82633,-4.50458 1.02886,-2.10325 3.27497,-4.33686 5.42056,-5.39042 1.48442,-0.7289 1.9107,-0.80337 4.59816,-0.80337 2.77733,0 3.07883,0.0574 4.83446,0.92177 2.12999,1.0486 4.25989,3.17683 5.32343,5.31927 0.58936,1.18727 0.67534,1.75461 0.67534,4.45733 0,2.77299 -0.0792,3.26579 -0.75683,4.71172 -1.01971,2.17581 -3.17724,4.27866 -5.44477,5.3068 l -1.82218,0.82623 v 6.3055 6.3055 l 6.12342,3.52163 c 3.36787,1.9369 9.16399,5.30487 12.88027,7.48438 l 6.75687,3.96275 0.14076,-14.05384 c 0.13521,-13.49945 0.16296,-14.08341 0.70385,-14.80355 0.33464,-0.44556 3.81831,-2.55932 8.58686,-5.21017 l 8.02378,-4.46044 0.0684,-16.27736 0.0683,-16.27735 -8.09208,-4.66389 c -6.09622,-3.51359 -8.24831,-4.89526 -8.72551,-5.60198 l -0.63353,-0.93808 V 89.393027 72.417387 l -4.71572,-2.794058 C 137.24453,66.141492 121.16693,56.819403 119.97854,56.204857 l -0.88192,-0.456052 -14.34661,8.369049 -14.346582,8.36905 v 17.156406 17.1564 l -1.055754,1.02586 c -0.580675,0.56422 -4.508097,2.98688 -8.727629,5.3837 l -7.671856,4.35783 v 16.21113 16.21115 l 4.715732,2.62845 c 10.870195,6.05883 11.655566,6.53719 12.200872,7.43148 0.508458,0.83385 0.536581,1.6051 0.53757,14.74554 0,7.62611 0.05214,13.86565 0.114665,13.86565 0.06246,0 5.394205,-3.10682 11.848282,-6.90404 z m -0.86935,-46.41892 c -1.945638,-1.94564 -1.08814,-3.99994 2.82916,-6.77758 7.19071,-5.09876 16.50155,-6.15531 24.74064,-2.80746 2.21358,0.89946 6.01401,3.4624 7.45947,5.03055 0.98076,1.06398 1.17628,1.46741 1.17628,2.42703 0,1.46218 -0.35633,2.11871 -1.45961,2.68924 -1.35999,0.70328 -2.48488,0.35667 -4.64644,-1.43169 -6.04504,-5.00141 -13.64652,-6.01068 -20.50408,-2.72241 -1.24148,0.59531 -2.95181,1.64546 -3.80073,2.33367 -2.41054,1.95421 -2.8695,2.21588 -3.88658,2.21588 -0.70604,0 -1.1974,-0.2465 -1.90811,-0.95723 z M 91.324914,124.88495 c -0.921328,-0.92133 -0.982364,-1.08893 -0.845768,-2.32268 0.134094,-1.21089 0.319658,-1.48882 2.076891,-3.11076 4.915627,-4.53712 12.157383,-8.15163 18.995283,-9.48093 1.29821,-0.25238 4.07073,-0.52996 6.16114,-0.61684 9.65821,-0.40141 18.64732,2.54527 26.21133,8.59223 2.94135,2.35142 3.77227,3.45673 3.77227,5.0179 0,1.76022 -1.06409,2.77328 -2.91294,2.77328 -1.26795,0 -1.47252,-0.11076 -3.30165,-1.78776 -6.25192,-5.73193 -13.49147,-8.48824 -22.36133,-8.51363 -5.51043,-0.0157 -10.39705,1.12407 -15.20296,3.54619 -2.11746,1.06717 -5.830055,3.6548 -7.460706,5.20001 -2.183884,2.06942 -3.574618,2.25994 -5.13156,0.70299 z m -45.263425,37.22079 c 8.188879,-4.68925 15.442989,-8.87942 18.440624,-10.6518 l 2.111516,-1.24847 0.07268,-16.20969 c 0.05714,-12.75622 -0.0032,-16.26974 -0.281543,-16.49158 -0.194821,-0.15505 -5.628504,-3.33511 -12.074833,-7.06681 l -11.720639,-6.78491 -8.274888,4.84855 c -4.551203,2.66669 -11.025688,6.43218 -14.387789,8.36773 l -6.112881,3.51921 -0.0043,15.78457 -0.0042,15.78457 1.19653,0.66486 c 1.566019,0.87019 17.999798,10.40708 20.90406,12.13113 1.238763,0.73535 2.442327,1.34738 2.674603,1.36005 0.232266,0.0127 3.589578,-1.79066 7.460701,-4.00741 z M 211.38764,159.353 c 6.31018,-3.73153 11.82269,-6.96541 12.25004,-7.18641 l 0.777,-0.4018 -0.003,-15.6884 -0.003,-15.68842 -10.60409,-6.19379 c -5.83225,-3.40659 -12.28836,-7.16597 -14.34689,-8.35417 l -3.74283,-2.16037 -8.5261,4.98581 c -4.6896,2.7422 -10.14166,5.90928 -12.11594,7.03797 l -3.58958,2.05216 v 16.13247 16.13246 l 13.86566,8.04329 c 7.62611,4.4238 14.02256,8.05016 14.21434,8.05854 0.19178,0.008 5.51155,-3.03781 11.82176,-6.76934 z"
       id="path9626" /></g></svg>
