<?xml version="1.0" encoding="UTF-8" standalone="no"?>
<!-- Created with Inkscape (http://www.inkscape.org/) -->

<svg
   width="278.06357mm"
   height="261.57745mm"
   viewBox="0 0 278.06357 261.57745"
   version="1.1"
   id="svg5"
   xml:space="preserve"
   inkscape:export-filename="branded wallet icon - colored.png"
   inkscape:export-xdpi="96"
   inkscape:export-ydpi="96"
   inkscape:version="1.2.2 (732a01da63, 2022-12-09)"
   sodipodi:docname="payment_journey.svg"
   xmlns:inkscape="http://www.inkscape.org/namespaces/inkscape"
   xmlns:sodipodi="http://sodipodi.sourceforge.net/DTD/sodipodi-0.dtd"
   xmlns="http://www.w3.org/2000/svg"
   xmlns:svg="http://www.w3.org/2000/svg"><sodipodi:namedview
     id="namedview7"
     pagecolor="#ffffff"
     bordercolor="#000000"
     borderopacity="0.25"
     inkscape:showpageshadow="2"
     inkscape:pageopacity="0.0"
     inkscape:pagecheckerboard="0"
     inkscape:deskcolor="#d1d1d1"
     inkscape:document-units="mm"
     showgrid="false"
     inkscape:zoom="0.36925856"
     inkscape:cx="1161.7876"
     inkscape:cy="-18.956907"
     inkscape:window-width="1848"
     inkscape:window-height="987"
     inkscape:window-x="1611"
     inkscape:window-y="9"
     inkscape:window-maximized="0"
     inkscape:current-layer="layer1" /><defs
     id="defs2" /><g
     inkscape:label="Layer 1"
     inkscape:groupmode="layer"
     id="layer1"
     transform="translate(20.805004,-23.264353)"><rect
       style="fill:#8e6dff;fill-opacity:1;stroke:#4cbdee;stroke-width:0.796928"
       id="rect2761"
       width="277.26663"
       height="260.78052"
       x="-20.40654"
       y="23.662817"
       ry="37.468464" /><g
       id="g9342"
       transform="matrix(1.2220302,0,0,1.2220302,-405.48771,21.203072)"><rect
         style="fill:#ffffff;fill-opacity:0.954082;stroke:#ffffff;stroke-width:7.77141;stroke-dasharray:none;stroke-opacity:1"
         id="rect9332"
         width="158.5593"
         height="177.90555"
         x="349.89359"
         y="19.219908"
         ry="22.307108" /><path
         style="fill:#8e6dff;fill-opacity:1;stroke:none;stroke-width:0.817502"
         d="m 342.47363,107.45615 -1.43305,-97.5469694 87.51561,0.7165344 86.79907,2.149573 1.43306,94.680862 -10e-6,98.26351 -83.93296,-1.43305 -86.08256,-1.43305 z m 155.25988,91.16313 c 10.80652,-4.51527 16.35151,-16.33585 13.02723,-27.77096 -1.94046,-6.67496 -8.12136,-12.85586 -14.79631,-14.79632 -12.10243,-3.51827 -25.31212,3.43667 -28.3909,14.94786 l -0.93383,3.4915 h -28.70341 c -23.2963,0 -29.49129,-0.23398 -32.88589,-1.24206 -9.91377,-2.94408 -17.47328,-12.99598 -17.63383,-23.44773 -0.11976,-7.79603 2.06977,-13.21736 7.54854,-18.69035 7.48106,-7.47317 8.02525,-7.57992 40.1311,-7.87278 30.61174,-0.27922 32.36687,-0.5372 40.8181,-5.99949 20.38756,-13.17712 21.71713,-43.460102 2.56994,-58.535072 -8.50756,-6.698176 -10.65074,-7.176339 -34.2852,-7.649239 l -20.736,-0.41491 -1.48389,-5.847629 c -2.00883,-7.916272 -4.23798,-12.007048 -9.61451,-17.643778 -8.52671,-8.93935 -17.45146,-12.4521 -30.32328,-11.9351 -7.03213,0.28245 -8.54533,0.63764 -14.24206,3.34301 -24.24914,11.51586 -30.05347,42.497736 -11.58852,61.856306 15.18364,15.91847 39.9118,16.27952 55.38334,0.80864 5.35137,-5.35115 10.10278,-14.29296 10.93719,-20.58305 l 0.52649,-3.96896 20.12112,0.25529 20.12111,0.25529 5.13558,2.37152 c 6.64964,3.0707 13.23388,10.02249 15.7291,16.60715 3.91769,10.33846 1.72153,22.46218 -5.52994,30.527572 -8.85403,9.84781 -11.84707,10.58019 -43.23796,10.58019 -15.20807,0 -26.41487,0.35427 -29.07734,0.91919 -9.71386,2.06106 -17.85846,8.60752 -22.24623,17.88103 -2.24868,4.75257 -2.5099,6.09605 -2.46415,12.67363 0.039,5.60819 0.48908,8.4745 1.89302,12.05543 2.56286,6.5369 8.6692,12.9865 15.46384,16.33307 l 5.43435,2.6766 30.92319,0.40875 30.92317,0.40875 1.95972,4.82343 c 3.79396,9.33806 11.16251,14.36561 21.07561,14.37989 3.07395,0.004 6.83974,-0.53324 8.45151,-1.20667 z m -16.11546,-6.41 c -9.53696,-5.03492 -11.77765,-17.44545 -4.62133,-25.59607 10.14922,-11.55932 28.90902,-4.27734 28.71982,11.14816 -0.0613,4.99902 -1.47045,8.30778 -4.94277,11.60604 -5.22621,4.96423 -12.96183,6.11186 -19.15572,2.84187 z m 10.92214,-11.13236 c 3.03604,-3.57196 5.72148,-7.01935 5.96766,-7.66086 0.45038,-1.17368 -1.58992,-3.82972 -2.9419,-3.82972 -0.70814,0 -4.6988,4.07117 -8.01336,8.17503 l -1.65067,2.04376 -1.72713,-1.83938 c -2.02007,-2.15136 -3.50984,-2.32847 -4.95354,-0.58893 -0.754,0.90852 -0.80887,1.7529 -0.20065,3.08779 1.38652,3.0431 5.18063,7.10679 6.63531,7.10679 0.75031,0 3.84823,-2.92251 6.88428,-6.49448 z M 378.35687,86.154498 c -4.78674,-0.80183 -13.32475,-4.85243 -15.81461,-7.50278 l -1.7824,-1.89726 1.91404,-4.13127 c 5.6421,-12.17787 19.86478,-17.337256 31.73051,-11.51048 5.32351,2.61418 9.78203,7.35856 11.74472,12.49776 l 1.34174,3.5133 -2.34301,2.03768 c -3.51107,3.05353 -9.92163,5.95765 -15.36881,6.9624 -5.36567,0.98971 -5.69153,0.99059 -11.42218,0.0307 z m -24.12428,-18.77647 c -5.60665,-13.032986 -2.99357,-27.206639 6.82916,-37.042246 14.04634,-14.06473 37.43485,-12.23293 49.61763,3.8861 7.2319,9.568522 8.37929,23.937866 2.77622,34.768056 l -1.45774,2.81766 -1.61844,-3.22641 c -2.15805,-4.30214 -7.62804,-9.92038 -11.66208,-11.97814 -1.7985,-0.917416 -3.38016,-1.763616 -3.51479,-1.880446 -0.13463,-0.11683 0.64232,-1.51963 1.72656,-3.117343 6.72337,-9.907448 -0.37296,-23.496757 -12.30377,-23.561427 -6.79146,-0.0368 -11.17298,2.57561 -14.19139,8.4614 -2.18893,4.268348 -1.99595,9.383737 0.53348,14.140947 1.6424,3.088933 1.86084,4.073403 1.02187,4.605513 -0.58687,0.37222 -1.30991,0.6824 -1.60676,0.68929 -1.81262,0.042 -9.25165,7.268506 -11.39886,11.073146 -1.38808,2.45955 -2.62731,4.47192 -2.75383,4.47192 -0.12652,0 -1.02529,-1.84862 -1.99726,-4.10802 z m 26.90845,-15.269826 c -2.46246,-0.896023 -5.71438,-4.681293 -6.18727,-7.202037 -1.10208,-5.874566 3.52628,-11.025243 9.90719,-11.025243 4.42107,0 8.54262,4.313052 8.54262,8.939539 0,6.763608 -6.23051,11.482651 -12.26254,9.287741 z"
         id="path313"
         sodipodi:nodetypes="cccccccccsssscsssssssscssssssscccssssssssscccscsssssssssscssssssscssscsssssssscsssssssssssssssss" /></g><path
       style="fill:#ffffff;fill-opacity:0.954082;stroke:#ffffff;stroke-width:7.262;stroke-dasharray:none;stroke-opacity:1"
       id="path895"
       sodipodi:type="arc"
       sodipodi:cx="692.13824"
       sodipodi:cy="-106.78511"
       sodipodi:rx="70.219543"
       sodipodi:ry="66.278648"
       sodipodi:start="4.9765446"
       sodipodi:end="4.9712562"
       sodipodi:open="true"
       sodipodi:arc-type="arc"
       d="m 710.47217,-170.76477 a 70.219543,66.278648 0 0 1 49.47411,81.200032 70.219543,66.278648 0 0 1 -85.96266,46.804823 70.219543,66.278648 0 0 1 -49.70142,-81.076275 70.219543,66.278648 0 0 1 85.83124,-47.0192" /><rect
       style="opacity:0.432941;fill:#ffffff;fill-opacity:0.954082;stroke:#ffffff;stroke-width:7.26199;stroke-dasharray:none;stroke-opacity:1"
       id="rect9226"
       width="207.07599"
       height="168.38361"
       x="88.106934"
       y="-212.47267"
       ry="20.062727" /></g></svg>
