<?xml version="1.0" encoding="UTF-8" standalone="no"?>
<!-- Created with Inkscape (http://www.inkscape.org/) -->

<svg
   version="1.1"
   id="svg2"
   width="826.35699"
   height="1166.1388"
   viewBox="0 0 826.35699 1166.1388"
   sodipodi:docname="rock8_branded_card_2_with_new_logo.svg"
   xml:space="preserve"
   inkscape:version="1.2.2 (732a01da63, 2022-12-09)"
   xmlns:inkscape="http://www.inkscape.org/namespaces/inkscape"
   xmlns:sodipodi="http://sodipodi.sourceforge.net/DTD/sodipodi-0.dtd"
   xmlns="http://www.w3.org/2000/svg"
   xmlns:svg="http://www.w3.org/2000/svg"><defs
     id="defs6" /><sodipodi:namedview
     id="namedview4"
     pagecolor="#ffffff"
     bordercolor="#000000"
     borderopacity="0.25"
     inkscape:showpageshadow="2"
     inkscape:pageopacity="0.0"
     inkscape:pagecheckerboard="0"
     inkscape:deskcolor="#d1d1d1"
     showgrid="false"
     inkscape:zoom="2.0719178"
     inkscape:cx="457.30579"
     inkscape:cy="304.30744"
     inkscape:window-width="2223"
     inkscape:window-height="994"
     inkscape:window-x="752"
     inkscape:window-y="0"
     inkscape:window-maximized="0"
     inkscape:current-layer="g8" /><g
     inkscape:groupmode="layer"
     inkscape:label="Image"
     id="g8"
     transform="translate(80.1537, 157.377)"><path
       style="fill:none;stroke:#000000;stroke-width:2.38649"
       d="M 33.992736,763.0139 91.859518,584.18422 601.08719,669.01369 517.75902,923.5021 Z"
       id="path401"
       sodipodi:nodetypes="ccccc" /><path
       style="fill:#8e6dff;fill-opacity:1;stroke-width:1.23721"
       d="M 47.1317 767.139 C 40.7235 764.626 38.5501 762.759 36.9227 758.399 C 36.1866 756.427 37.6313 751.715 62.7723 674.082 L 89.4338 591.753 L 91.8241 590.023 C 95.1751 587.598 98.5688 586.538 102.795 586.608 C 104.797 586.641 187.946 600.227 303.763 619.493 C 548.914 660.276 578.226 665.285 583.497 667.522 C 591.496 670.917 596.715 676.538 596.375 681.444 C 596.224 683.624 578.958 737.082 558.03 800.17 L 520.044 914.679 L 515.604 916.408 C 506.463 919.97 534.174 928.632 241.144 831.693 C 130.842 795.203 50.447 768.44 47.1317 767.139 Z M 71.5029 756.831 C 74.4832 754.653 74.6579 754.377 73.3179 753.957 C 72.2861 753.634 71.3472 754.136 70.2149 755.614 L 68.5931 757.73 L 69.6945 755.45 C 70.4358 753.915 70.4809 753.069 69.8326 752.866 C 69.1991 752.668 68.381 753.859 67.4391 756.348 C 65.9968 760.16 66.0221 763.385 67.4743 760.638 C 67.8835 759.864 69.6948 758.152 71.5029 756.831 Z M 82.3076 766.1 C 82.9681 765.994 84.1736 764.581 84.9863 762.961 C 86.0378 760.865 86.1617 760.06 85.4154 760.175 C 84.8389 760.264 84.056 761.298 83.6753 762.474 C 83.0825 764.304 80.3959 766.141 79.8191 765.115 C 79.7142 764.928 79.8786 763.181 80.1844 761.233 C 80.7664 757.525 81.1368 757.342 84.8166 758.95 C 86.7755 759.807 84.9853 757.84 82.6944 756.617 L 80.6265 755.512 L 79.0646 760.334 C 77.5825 764.91 77.5945 765.185 79.3028 765.723 C 80.295 766.037 81.6477 766.206 82.3076 766.1 Z M 92.1948 767.907 C 92.1799 765.768 92.3962 764.046 92.9716 761.716 C 93.1921 760.823 92.8134 760.06 92.0287 759.814 C 91.1678 759.545 90.776 759.809 90.8831 760.587 C 90.9727 761.238 90.8855 763.057 90.6893 764.629 C 90.3608 767.261 90.8373 769.441 91.8114 769.754 C 92.0297 769.824 92.2023 768.993 92.1948 767.907 Z M 436.335 878.206 C 444.162 878.198 448.415 876.202 449.84 871.84 C 451.395 867.084 449.764 864.543 441.15 858.243 C 436.864 855.109 435.609 853.617 436.289 852.471 C 437.108 851.09 438.186 851.227 446.346 853.756 L 455.593 856.624 L 458.136 853.758 C 459.537 852.179 460.391 850.555 460.032 850.15 C 458.972 848.953 443.736 843.935 438.337 842.993 C 431.545 841.808 423.014 843.747 420.8 846.954 C 418.006 851 419.827 854.833 427.272 860.508 C 435.155 866.517 435.963 869.645 429.496 869.183 C 426.413 868.962 423.839 868.067 418.837 865.484 C 415.233 863.622 411.95 862.289 411.526 862.512 C 411.101 862.735 409.878 864.303 408.807 865.996 L 406.863 869.072 L 411.74 871.222 C 414.436 872.41 417.196 873.721 417.865 874.13 C 420.078 875.485 432.397 878.21 436.335 878.206 Z M 70.5959 759.969 C 70.1751 759.326 69.9566 759.436 69.8808 760.33 C 69.7139 762.296 69.7576 762.386 70.506 761.614 C 70.8891 761.22 70.9294 760.479 70.5959 759.969 Z M 372.295 855.256 C 385.436 844.851 400.669 832.416 400.814 831.972 C 400.91 831.679 397.669 830.575 393.631 829.524 L 386.345 827.627 L 376.376 836.058 C 370.931 840.663 366.551 844.156 366.619 843.841 C 367.509 839.72 366.862 824.08 365.746 822.6 C 364.531 820.988 362.154 820.016 352.344 817.108 C 345.866 815.187 340.504 813.951 340.376 814.344 C 340.248 814.737 342.636 816.445 345.696 818.145 C 348.77 819.853 351.77 822.235 352.351 823.432 C 352.933 824.63 353.733 831.35 354.129 838.383 C 354.526 845.44 354.934 851.749 355.035 852.381 C 355.152 853.118 357.659 854.315 362.038 855.719 L 368.921 857.927 Z M 407.702 854.576 C 412.796 847.73 417.745 841.025 418.683 839.697 L 420.39 837.28 L 413.242 835.161 C 406.961 833.298 406.017 833.246 404.892 834.69 C 404.194 835.586 399.635 841.735 394.774 848.335 C 389.93 854.913 385.525 860.854 384.971 861.558 C 384.078 862.691 384.783 863.07 391.19 864.889 L 398.487 866.961 Z M 463.246 885.371 C 465.479 883.35 465.805 883.372 474.618 886.168 C 483.673 889.04 483.797 889.117 483.815 891.932 C 483.833 894.667 484.152 894.89 491.359 897.202 L 498.957 899.639 L 498.621 882.4 C 498.437 872.967 498.191 864.141 498.073 862.758 C 497.876 860.448 497.233 860.06 490.156 857.962 C 484.693 856.342 481.751 855.937 479.808 856.531 C 477.684 857.179 446.096 880.979 445.69 882.222 C 445.636 882.387 449.022 883.621 453.234 884.972 C 460.557 887.322 461.068 887.342 463.246 885.371 Z M 473.592 876.765 C 473.692 876.461 475.927 874.338 478.566 872.041 L 483.378 867.853 L 483.67 873.042 C 484.092 880.528 484.008 880.621 478.382 878.866 C 475.644 878.013 473.493 877.068 473.592 876.765 Z M 96.0588 763.045 C 97.0628 761.831 97.0861 761.397 96.1631 761.109 C 95.3026 760.839 94.7475 761.502 94.1466 763.516 C 93.6904 765.045 93.6431 765.916 94.0416 765.452 C 94.4402 764.987 95.3478 763.904 96.0588 763.045 Z M 262.628 786.278 C 265.136 784.02 266.805 782.056 266.332 781.919 C 264.931 781.513 258.559 785.495 257.17 787.637 C 255.708 789.892 255.759 792.868 257.233 791.284 C 257.701 790.782 260.126 788.532 262.628 786.278 Z M 236.269 782.104 C 237.142 781.165 237.787 779.486 237.702 778.373 L 237.548 776.352 L 236.821 778.248 C 235.237 782.374 231.562 783.127 231.468 779.358 C 231.399 776.622 234.339 773.949 236.176 775.084 C 237.096 775.651 237.584 775.605 237.501 774.957 C 237.429 774.393 236.272 773.614 234.932 773.225 C 232.884 772.632 232.251 772.943 230.901 775.201 C 229.071 778.262 230.14 782.457 232.972 783.3 C 233.935 783.586 235.377 783.064 236.269 782.104 Z M 248.739 786.355 C 249.632 785.718 250.483 784.262 250.628 783.118 C 250.885 781.099 250.839 781.104 249.012 783.281 C 245.591 787.357 242.536 783.727 245.778 779.465 C 247.04 777.807 249.664 778.02 250.149 779.825 C 250.309 780.42 250.539 780.222 250.658 779.385 C 250.945 777.379 247.545 775.928 245.289 777.085 C 242.884 778.317 241.818 782.009 243.131 784.555 C 244.478 787.165 246.628 787.858 248.739 786.355 Z M 278.331 794.72 C 280.635 792.846 281.438 790.632 280.19 789.595 C 279.653 789.149 278.96 789.705 278.559 790.904 C 278.176 792.05 277.241 793.352 276.482 793.797 C 274.223 795.12 273.09 792.6 274.53 789.471 C 275.616 787.112 276.174 786.807 278.219 787.456 C 281.242 788.417 281.644 787.507 279.052 785.572 C 276.203 783.445 273.629 784.353 272.482 787.877 C 271.49 790.926 272.906 795.185 275.138 795.849 C 275.865 796.066 277.301 795.558 278.331 794.72 Z M 292.37 798.622 C 293.338 797.911 294.167 796.329 294.21 795.108 C 294.288 792.907 294.273 792.908 292.434 795.228 C 289.828 798.514 288.336 798.758 287.558 796.034 C 286.563 792.546 288.871 790.243 292.606 791.009 L 295.723 791.648 L 293.433 789.881 C 290.545 787.653 288.411 788.225 286.145 791.821 C 284.926 793.754 284.948 794.906 286.245 797.013 C 288.127 800.07 289.795 800.511 292.37 798.622 Z M 267.793 780.728 C 267.925 780.323 267.822 779.931 267.564 779.856 C 267.306 779.782 266.692 779.968 266.199 780.269 C 265.707 780.57 265.809 780.962 266.428 781.14 C 267.047 781.319 267.661 781.134 267.793 780.728 Z M 400.66 791.563 C 403.847 790.007 408.132 778.038 406.253 775.937 C 405.583 775.189 402.685 773.97 399.823 773.232 C 396.971 772.496 393.827 772.152 392.826 772.464 C 391.708 772.813 390.19 775.54 388.884 779.544 C 386.598 786.555 386.981 787.572 393.053 790.559 C 397.879 792.932 397.86 792.93 400.66 791.563 Z M 390.495 787.969 C 389.257 786.554 391.854 776.742 393.974 774.823 C 394.768 774.105 396.746 774.172 400.069 775.033 L 405.021 776.316 L 403.037 782.398 C 401.945 785.743 400.231 789.02 399.229 789.681 C 397.195 791.02 392.326 790.06 390.495 787.969 Z M 424.119 799.078 C 428.464 798.603 433.982 784.384 430.782 781.898 C 428.521 780.14 418.825 778.077 416.75 778.901 C 414.386 779.839 411.613 788.204 412.477 791.79 C 412.821 793.218 414.75 795.302 416.935 796.601 C 421.567 799.356 421.568 799.356 424.119 799.078 Z M 415.384 794.388 C 413.628 792.887 413.679 791.808 415.731 787.003 C 418.382 780.792 419.996 780.032 426.31 782.045 C 430.184 783.28 430.186 783.287 428.474 788.599 C 426.046 796.136 424.558 797.707 420.668 796.856 C 418.895 796.468 416.518 795.357 415.384 794.388 Z M 453.35 805.789 C 456.738 804.203 461.19 791.82 459.16 789.624 C 458.437 788.841 455.329 787.552 452.263 786.761 C 449.21 785.974 445.848 785.589 444.783 785.905 C 443.595 786.256 442.003 789.067 440.657 793.188 C 438.279 800.471 439.101 802.469 445.56 805.033 C 447.351 805.744 449.225 806.493 449.723 806.695 C 450.22 806.898 451.851 806.491 453.35 805.789 Z M 442.456 801.969 C 441.049 800.412 444.142 789.381 446.31 788.225 C 447.025 787.843 449.89 788.122 452.686 788.847 L 457.794 790.173 L 455.765 796.383 C 454.649 799.799 452.865 803.147 451.802 803.823 C 449.643 805.195 444.433 804.155 442.456 801.969 Z M 479.56 813.635 C 482.215 813.244 482.94 812.134 485.005 805.29 C 486.673 799.76 486.892 797.038 485.738 796.198 C 483.269 794.401 473.023 791.964 470.745 792.62 C 468.327 793.317 465.074 802.619 465.996 806.195 C 466.362 807.618 468.491 809.824 470.796 811.167 C 476.019 814.21 475.894 814.175 479.56 813.635 Z M 469.542 809.149 C 467.345 807.245 469.077 798.892 472.24 796.13 C 474.187 794.431 475.072 794.393 479.622 795.822 L 484.825 797.456 L 483.049 802.963 C 480.532 810.767 478.958 812.384 474.789 811.465 C 472.889 811.046 470.529 810.003 469.542 809.148 Z M 106.974 704.302 C 109.123 697.67 109.056 697.516 103.448 696.072 C 99.0003 694.927 97.9776 695.763 96.3858 701.826 C 95.6396 704.667 95.2106 707.252 95.4328 707.57 C 95.6551 707.887 97.1088 708.905 98.667 709.834 C 101.132 711.303 101.746 711.446 103.273 710.903 C 104.713 710.391 105.396 709.173 106.974 704.302 Z M 97.2458 707.591 C 96.795 706.948 97.0554 704.79 97.8968 702.193 C 99.0675 698.578 99.6178 697.785 101.236 697.382 C 102.304 697.116 104.06 697.277 105.139 697.741 C 107.082 698.576 107.081 698.655 105.066 704.095 L 103.026 709.601 L 100.507 709.131 C 99.1258 708.873 97.6594 708.18 97.2458 707.591 Z M 121.506 713.788 C 123.118 711.515 125.237 703.617 124.563 702.395 C 124.248 701.822 122.169 700.891 119.913 700.311 C 114.635 698.952 113.497 699.824 112.158 706.236 C 111.038 711.596 111.383 712.656 114.844 714.447 C 117.905 716.032 120.064 715.821 121.506 713.788 Z M 112.999 711.815 C 112.787 711.265 113.331 708.777 114.207 706.285 C 116.006 701.171 117.284 700.381 121.282 701.926 L 123.773 702.889 L 121.707 708.479 L 119.643 714.066 L 116.506 713.439 C 114.648 713.068 113.228 712.41 112.999 711.815 Z M 140.84 713.224 C 143.05 706.407 142.979 706.248 137.054 704.723 C 135.254 704.259 133.219 704.172 132.527 704.528 C 131.23 705.194 127.977 715.504 128.733 716.553 C 128.952 716.857 130.478 717.896 132.128 718.863 C 134.739 720.394 135.387 720.546 136.993 719.997 C 138.506 719.481 139.216 718.231 140.84 713.224 Z M 130.612 716.543 C 130.134 715.881 130.384 713.671 131.232 711.053 C 132.883 705.962 134.82 704.727 138.63 706.354 L 140.932 707.337 L 138.826 712.997 L 136.722 718.655 L 134.062 718.152 C 132.604 717.877 131.053 717.153 130.612 716.543 Z M 156.154 723.541 C 157.647 721.763 160.078 712.6 159.38 711.382 C 159.04 710.79 156.835 709.815 154.453 709.202 C 148.886 707.769 147.68 708.662 146.335 715.189 C 145.263 720.396 145.66 721.504 149.383 723.663 C 152.185 725.288 154.723 725.245 156.154 723.541 Z M 148.142 721.959 C 147.143 721.154 147.236 719.881 148.603 715.667 C 150.504 709.805 151.474 709.177 155.988 710.906 L 158.546 711.885 L 156.429 717.584 C 154.384 723.09 154.232 723.274 151.851 723.124 C 150.501 723.039 148.832 722.514 148.142 721.959 Z M 188.553 734.03 C 189.943 733.508 190.866 731.86 192.383 727.187 C 194.582 720.412 194.164 719.424 188.501 717.966 C 183.369 716.645 182.202 717.529 180.408 724.07 L 178.793 729.958 L 181.649 732.033 C 185.187 734.602 186.228 734.904 188.553 734.03 Z M 181.229 730.837 C 180.047 729.269 183.141 719.988 185.031 719.431 C 185.829 719.196 187.702 719.394 189.195 719.872 C 191.9 720.739 191.909 720.776 190.64 725.627 C 188.876 732.367 187.888 733.529 184.669 732.661 C 183.242 732.276 181.695 731.456 181.229 730.837 Z M 208.275 738.254 C 210.733 736.372 213.396 726.011 211.773 724.647 C 211.144 724.118 208.797 723.209 206.563 722.627 C 200.701 721.102 198.839 723.047 197.688 731.864 C 197.298 734.851 197.586 735.425 200.366 737.199 C 204.389 739.767 206.013 739.986 208.275 738.254 Z M 199.903 736.062 C 199.057 735.335 199.237 733.651 200.579 729.748 C 201.586 726.82 202.697 724.316 203.048 724.183 C 203.399 724.05 205.334 724.327 207.352 724.801 L 211.037 725.666 L 209.345 731.308 C 208.415 734.411 207.087 737.227 206.396 737.566 C 204.939 738.279 201.573 737.497 199.903 736.062 Z M 227.553 744.84 C 228.488 744.503 229.814 741.891 231.174 737.706 C 233.545 730.41 233.132 729.455 226.952 727.864 C 221.87 726.556 220.283 727.782 218.489 734.376 L 216.906 740.199 L 219.946 742.361 C 223.54 744.918 225.531 745.569 227.553 744.84 Z M 219.491 741.124 C 218.305 739.598 221.443 729.796 223.208 729.513 C 223.923 729.399 226.029 729.607 227.893 729.977 L 231.296 730.653 L 229.484 736.229 C 228.487 739.296 227.236 742.238 226.702 742.768 C 225.557 743.904 220.805 742.817 219.491 741.124 Z M 248.168 748.984 C 250.693 747.081 253.473 737.203 251.999 735.372 C 251.407 734.636 248.866 733.505 246.36 732.86 C 240.376 731.32 238.84 732.571 237.438 740.103 C 236.57 744.759 236.715 745.838 238.365 746.977 C 243.482 750.509 245.572 750.941 248.168 748.984 Z M 239.404 746.308 C 238.53 744.953 241.115 734.931 242.464 734.441 C 242.868 734.294 244.945 734.585 247.087 735.089 L 250.998 736.01 L 249.222 741.815 C 248.245 745.007 246.865 747.905 246.155 748.254 C 244.421 749.107 240.472 747.965 239.404 746.308 Z M 287.345 760.332 C 288.275 759.67 289.79 756.267 290.803 752.563 L 292.605 745.974 L 286.795 744.226 C 282.902 743.055 280.642 742.732 279.829 743.228 C 279.167 743.631 277.754 746.618 276.688 749.866 C 274.832 755.517 274.858 755.858 277.285 757.82 C 280.799 760.662 285.295 761.791 287.345 760.332 Z M 278.114 756.886 C 276.545 754.952 279.875 745.886 282.49 744.975 C 283.672 744.563 285.287 744.594 286.078 745.045 C 286.87 745.496 288.212 746.046 289.06 746.266 C 290.254 746.575 290.198 747.915 288.81 752.179 C 287.824 755.211 286.548 758.142 285.975 758.691 C 284.745 759.869 279.565 758.674 278.114 756.886 Z M 309.907 764.836 C 312.083 762.161 314.485 753.71 313.595 751.861 C 313.331 751.311 310.374 750.155 307.039 749.295 C 301.474 747.859 300.912 747.875 299.659 749.503 C 297.668 752.089 296.31 761.012 297.661 762.654 C 298.919 764.184 301.438 765.526 305.308 766.724 C 307.258 767.328 308.19 766.946 309.907 764.836 Z M 299.048 762.568 C 298.414 761.223 299.712 756.01 301.53 752.595 C 303.095 749.657 304.826 749.357 309.407 751.242 L 312.536 752.53 L 310.195 758.585 C 308.909 761.913 307.712 764.874 307.534 765.165 C 307.018 766.01 299.598 763.734 299.048 762.568 Z M 332.288 772.447 C 333.271 771.77 334.849 768.26 335.89 764.435 L 337.741 757.632 L 331.549 755.777 C 327.401 754.535 324.996 754.183 324.137 754.689 C 323.438 755.102 321.965 758.18 320.863 761.531 C 318.946 767.362 318.977 767.715 321.574 769.765 C 325.335 772.734 330.124 773.939 332.288 772.447 Z M 322.446 768.805 C 320.76 766.791 324.211 757.44 326.981 756.518 C 328.233 756.101 329.949 756.146 330.794 756.619 C 331.64 757.092 333.072 757.671 333.975 757.905 C 335.248 758.235 335.201 759.621 333.767 764.022 C 332.748 767.152 331.42 770.173 330.816 770.737 C 329.52 771.946 324.005 770.667 322.446 768.805 Z M 355.297 779.291 C 357.122 778.279 361.265 765.616 360.272 764.085 C 359.01 762.139 347.187 759.321 345.794 760.618 C 344.358 761.955 342.285 768.327 342.22 771.604 C 342.143 775.474 351.845 781.206 355.298 779.291 Z M 344.753 774.858 C 344.067 773.464 345.393 768.08 347.284 764.574 C 348.85 761.672 351.033 761.379 356.104 763.405 C 358.96 764.547 358.967 764.664 356.573 770.82 C 355.236 774.259 353.99 777.317 353.804 777.617 C 353.263 778.488 345.348 776.07 344.753 774.858 Z M 362.118 774.375 C 361.936 773.648 361.59 773.758 361.235 774.654 C 360.914 775.464 361.048 776.002 361.534 775.849 C 362.019 775.696 362.282 775.032 362.118 774.375 Z M 121.783 686.154 C 122.95 685.269 122.992 685.279 122.665 686.371 C 122.373 687.343 123.152 687.722 127.808 688.87 L 133.345 690.235 L 134.127 687.821 C 134.565 686.472 134.444 684.707 133.855 683.821 C 132.868 682.337 132.934 682.128 134.915 680.48 C 136.079 679.512 137.666 677.116 138.441 675.157 L 139.849 671.594 L 144.195 672.5 L 148.571 673.414 L 144.521 672.93 L 140.497 672.45 L 139.079 675.947 C 138.122 678.305 137.969 679.706 138.609 680.254 C 139.131 680.702 143.146 681.927 147.559 682.983 L 155.663 684.922 L 158.228 676.937 C 161.509 666.724 161.214 666.046 152.575 663.81 C 144.278 661.663 143.507 661.734 142.538 664.725 C 141.998 666.392 141.023 667.48 139.58 668.028 C 137.698 668.742 137.546 668.721 138.351 667.857 C 138.856 667.315 139.614 666.95 140.036 667.046 C 140.459 667.141 141.223 665.929 141.735 664.351 L 142.665 661.482 L 129.428 658.754 C 122.266 657.278 115.637 656.226 114.623 656.4 C 113.172 656.65 112.461 657.519 111.254 660.516 L 109.725 664.314 L 119.13 666.476 C 127.188 668.329 128.931 668.539 130.291 667.815 C 131.426 667.211 131.331 667.389 129.969 668.417 C 127.448 670.321 125.643 675.905 126.738 678.416 C 127.517 680.204 127.431 680.453 125.603 681.695 C 124.516 682.433 123.475 682.829 123.289 682.575 C 123.102 682.322 123.716 681.788 124.653 681.389 C 128.75 679.643 126.893 678.462 116.159 675.952 C 109.794 674.463 109.262 674.284 114.146 675.277 C 124.987 677.479 124.791 677.515 125.909 673.086 L 126.863 669.303 L 118.084 667.277 L 109.429 665.279 L 107.116 673.025 C 104.222 682.72 104.436 683.109 114.024 685.473 C 119.363 686.789 120.782 686.914 121.783 686.155 Z M 126.708 684.56 C 128.277 684.785 130.569 685.345 131.801 685.806 C 133.035 686.268 131.741 686.082 128.935 685.395 C 126.141 684.71 125.143 684.336 126.708 684.56 Z M 129.552 664.845 C 128.836 663.574 128.873 663.557 129.951 664.671 C 130.606 665.348 131.107 666.014 131.063 666.149 C 130.889 666.686 130.305 666.182 129.552 664.845 Z M 133.696 662.996 C 135.274 663.194 137.58 663.714 138.819 664.153 C 140.06 664.592 138.759 664.428 135.936 663.79 C 133.127 663.155 132.122 662.798 133.696 662.996 Z M 150.89 692.995 C 152.827 692.26 153.633 691.323 154.425 688.882 L 155.45 685.721 L 146.098 683.211 C 136.491 680.631 134.028 680.574 134.396 682.92 C 134.502 683.599 134.934 684.238 135.355 684.34 C 135.776 684.441 135.753 685.66 135.303 687.047 C 134.853 688.434 134.679 689.829 134.915 690.148 C 135.151 690.467 138.256 691.446 141.832 692.327 C 147.358 693.689 148.778 693.795 150.89 692.995 Z M 94.8234 673.251 C 99.4813 668.693 101.598 661.164 99.9399 655.06 C 99.2648 652.576 97.9794 651.471 96.5329 652.127 C 96.224 652.267 96.1818 654.016 96.4392 656.016 C 97.0432 660.708 95.9187 667.283 94.565 666.965 C 93.9736 666.826 93.6337 667.258 93.6904 668.075 C 93.7415 668.812 92.8966 670.327 91.8138 671.442 C 89.3996 673.927 88.6887 676.494 90.4422 676.395 C 91.1237 676.357 93.0942 674.943 94.8234 673.251 Z M 89.3886 670.026 C 92.6709 666.787 94.4481 661.095 93.5426 656.723 C 92.956 653.891 91.3623 652.494 89.9432 653.559 C 89.6212 653.801 89.5822 655.623 89.8569 657.61 C 90.4739 662.073 89.9096 663.82 86.5707 667.784 C 85.1358 669.487 84.0623 671.14 84.1832 671.46 C 84.7605 672.987 87.0161 672.368 89.3886 670.026 Z M 83.9053 666.852 C 86.6091 664.051 87.8807 659.392 86.7592 656.398 C 85.9593 654.262 85.6204 653.987 84.454 654.524 C 83.293 655.058 83.1283 655.636 83.3526 658.391 C 83.5926 661.338 83.4155 661.878 81.4233 664.273 C 80.2189 665.721 79.3445 667.198 79.479 667.555 C 80.0209 668.994 82.1639 668.657 83.9054 666.852 Z M 78.9663 663.742 C 81.8097 660.784 81.9215 655.896 79.1656 655.267 C 77.7207 654.937 76.9869 656.134 77.2768 658.347 C 77.4519 659.683 77.1107 660.737 76.1558 661.81 C 73.3335 664.982 76.0003 666.828 78.9663 663.742 Z"
       id="path565" /><rect
       style="opacity:1;fill:#8e6dff;fill-opacity:0.992157;stroke:none;stroke-width:0.404692;stroke-dasharray:none"
       id="rect6317"
       width="399.62976"
       height="121.09992"
       x="126.90086"
       y="143.79324"
       rx="9.0922108"
       ry="4.304893" /><path
       style="fill:#ffffff;fill-opacity:1;stroke:none;stroke-width:2"
       d="m 136.21864,182.36852 v 72.86356 h 24.74289 v -48.46194 c 5.30476,-4.09922 13.02166,-6.84161 25.58789,-6.85626 v -19.4224 c -10.89816,2.25403 -21.23163,4.65863 -25.41725,8.70267 v -6.48434 z"
       id="path1570"
       sodipodi:nodetypes="ccccccccc" /><path
       style="fill:#8e6dff;fill-opacity:1;stroke:none;stroke-width:2"
       id="path1626"
       sodipodi:type="arc"
       sodipodi:cx="228.19395"
       sodipodi:cy="218.3737"
       sodipodi:rx="15.187017"
       sodipodi:ry="16.893423"
       sodipodi:start="4.9765446"
       sodipodi:end="4.9712562"
       sodipodi:open="true"
       sodipodi:arc-type="arc"
       d="m 232.1592,202.06626 a 15.187017,16.893423 0 0 1 10.70021,20.69666 15.187017,16.893423 0 0 1 -18.59192,11.92984 15.187017,16.893423 0 0 1 -10.74938,-20.66512 15.187017,16.893423 0 0 1 18.5635,-11.98448" /><path
       id="path1629-4"
       style="fill:#fefefe;fill-opacity:1;stroke:#ffffff;stroke-width:1.5166;stroke-dasharray:none"
       d="m 228.30344,181.16666 c 26.26062,-1.3398 41.58504,16.17173 40.76829,37.90364 -0.90826,24.16695 -15.71752,37.66593 -40.99586,37.69383 -23.63545,0.0261 -40.46798,-15.64911 -40.87675,-37.80403 -0.39962,-21.65868 16.0779,-39.18337 40.88779,-37.79377"
       sodipodi:nodetypes="csssc" /><path
       id="path1629"
       style="fill:#8e6dff;stroke:#ffffff;stroke-width:0.630676;stroke-dasharray:none"
       d="m 228.92021,201.10576 c 9.62687,-0.51829 15.73956,8.01143 15.13353,17.65792 -0.83247,13.25096 -6.92378,17.63394 -15.218,17.56018 -10.1535,-0.0903 -15.11392,-8.88343 -15.1738,-17.61152 -0.0637,-9.27935 3.6738,-17.5413 15.17791,-17.60674"
       sodipodi:nodetypes="csssc" /><path
       id="path1629-4-6"
       style="opacity:1;fill:#fefefe;fill-opacity:1;stroke:none;stroke-width:1.5166;stroke-dasharray:none"
       d="m 315.65028,182.04956 c 9.87368,-0.50375 20.49391,2.38143 26.99889,6.42993 l -0.15105,63.59594 c -6.4802,3.96924 -17.1849,5.36369 -27.07541,5.5716 -25.54053,0.53688 -41.09627,-15.46114 -41.84204,-37.32139 -0.77035,-22.58079 13.77266,-40.12754 41.85308,-38.27641"
       sodipodi:nodetypes="cccssc" /><path
       id="path1629-0"
       style="opacity:1;fill:#8e6dff;stroke:none;stroke-width:0.646925;stroke-dasharray:none"
       d="m 342.56237,234.48922 c -8.66933,3.40335 -20.01371,3.11294 -25.99369,2.8382 -12.51231,-0.57487 -15.20697,-9.59508 -15.07704,-18.69747 0.12614,-8.83739 3.32511,-17.8878 16.39323,-18.57195 6.06499,-1.65788 16.74725,-0.45003 24.95498,3.66743 z"
       sodipodi:nodetypes="cssccc" /><path
       style="opacity:1;fill:#ffffff;fill-opacity:1;stroke:none;stroke-width:0.5;stroke-dasharray:none"
       d="m 355.15059,151.14129 v 104.77335 h 25.25481 v -23.37777 l 7.16691,-7.1669 19.62367,30.20339 h 27.3025 L 402.92997,212.06 433.13336,181.8566 h -29.52083 l -23.12181,23.12181 v -53.83712 z"
       id="path6132" /><path
       style="opacity:1;fill:#ffffff;fill-opacity:1;stroke:none;stroke-width:0.5;stroke-dasharray:none"
       d="m 451.90383,199.94451 -11.26228,9.55588 v 32.42172 c 4.96967,7.06958 11.89074,13.07792 20.94203,12.89129 l 35.54002,0.51193 c 8.9822,-1.18902 17.16101,-6.53081 20.23291,-11.81157 v -34.01337 l -10.7137,-10.7137 10.27511,-10.2751 v -24.7429 c -4.68953,-7.65222 -12.86093,-11.53242 -23.00116,-13.27972 h -30.06808 c -8.62545,2.52371 -16.95667,5.50978 -22.44715,12.95987 v 23.1857 z"
       id="path6134"
       sodipodi:nodetypes="ccccccccccccccc" /><path
       style="opacity:1;fill:#8e6dff;fill-opacity:0.99215686;stroke:none;stroke-width:0.5;stroke-dasharray:none"
       d="m 458.21753,189.70607 c 0.34129,-0.8532 21.07412,-21.07412 21.07412,-21.07412 l 20.1356,20.1356 -41.20972,33.70153 z"
       id="path6136" /><path
       style="opacity:1;fill:#8e6dff;fill-opacity:0.992157;stroke:none;stroke-width:0.518237;stroke-dasharray:none"
       d="m 464.3606,223.78285 15.38722,-13.08798 13.70701,13.70701 -15.0335,15.0335 z"
       id="path6261" /><path
       style="opacity:1;fill:#8e6dff;fill-opacity:0.992157;stroke:none;stroke-width:0.5;stroke-dasharray:none"
       d="m 483.81363,208.13526 16.21086,-13.65125 v 29.17955 z"
       id="path6263" /></g></svg>
