<?xml version="1.0" encoding="UTF-8" standalone="no"?>
<!-- Created with Inkscape (http://www.inkscape.org/) -->

<svg
   width="210mm"
   height="297mm"
   viewBox="0 0 210 297"
   version="1.1"
   id="svg10273"
   xml:space="preserve"
   sodipodi:docname="rock8_branded_card_1_perspective.svg"
   inkscape:version="1.2.2 (732a01da63, 2022-12-09)"
   xmlns:inkscape="http://www.inkscape.org/namespaces/inkscape"
   xmlns:sodipodi="http://sodipodi.sourceforge.net/DTD/sodipodi-0.dtd"
   xmlns="http://www.w3.org/2000/svg"
   xmlns:svg="http://www.w3.org/2000/svg"><sodipodi:namedview
     id="namedview10275"
     pagecolor="#ffffff"
     bordercolor="#000000"
     borderopacity="0.25"
     inkscape:showpageshadow="2"
     inkscape:pageopacity="0.0"
     inkscape:pagecheckerboard="0"
     inkscape:deskcolor="#d1d1d1"
     inkscape:document-units="mm"
     showgrid="false"
     inkscape:zoom="0.73851712"
     inkscape:cx="322.26741"
     inkscape:cy="579.53972"
     inkscape:window-width="1799"
     inkscape:window-height="993"
     inkscape:window-x="1908"
     inkscape:window-y="22"
     inkscape:window-maximized="0"
     inkscape:current-layer="layer1" /><defs
     id="defs10270" /><g
     inkscape:label="Layer 1"
     inkscape:groupmode="layer"
     id="layer1"><path
       style="fill:#000000;fill-opacity:0;stroke-width:0.132292"
       d="m 33.676719,251.85886 8.240049,-38.6924 104.612782,7.52352 -7.88178,60.54644 z"
       id="path12473" /><g
       id="g13276"><path
         style="fill:#ffffff;fill-opacity:0.992157;stroke:#000000;stroke-width:0.132292"
         d="m 41.916768,190.23763 11.106149,-35.46803 95.297953,13.97226 -14.33052,57.32207 z"
         id="path12989" /><path
         style="fill:#8e6dff;fill-opacity:0.992157;stroke-width:0.125717"
         d="m 42.7929,190.46 c -0.2447,-0.257 -0.5415,-0.973 -0.5132,-1.238 0.0128,-0.12 2.4053,-7.825 5.286,-17.024 l 5.1532,-16.457 0.2043,-0.172 c 0.3152,-0.266 0.725,-0.516 0.9555,-0.583 0.1793,-0.052 4.5381,0.574 36.3304,5.236 l 56.3449,8.261 0.749,0.651 0.755,0.656 -6.773,27.092 c -7.507,30.03 -7.036,28.339 -7.949,28.486 -0.188,0.03 -0.739,-0.042 -1.223,-0.16 -0.636,-0.154 -18.54,-7.087 -54.8375,-21.212 C 45.3399,191.568 42.9564,190.631 42.7929,190.46 Z m 7.4135,0.5 c 0.2689,-0.205 0.6664,-1.088 0.536,-1.191 -0.08,-0.063 -0.3451,0.285 -0.4335,0.568 -0.0567,0.182 -0.4251,0.516 -0.5267,0.478 -0.0922,-0.035 -0.0736,-0.29 0.0666,-0.92 0.1195,-0.537 0.1319,-0.56 0.2947,-0.551 0.0935,0.005 0.2717,0.067 0.3959,0.139 0.138,0.079 0.2348,0.103 0.2477,0.061 0.029,-0.094 -0.3717,-0.481 -0.6746,-0.653 l -0.2469,-0.139 -0.2354,0.763 c -0.2896,0.939 -0.3187,1.194 -0.1515,1.331 0.1603,0.132 0.6116,0.203 0.7277,0.114 z m -2.5921,-1.121 c 0.0949,-0.138 0.382,-0.441 0.6382,-0.676 0.5157,-0.472 0.6026,-0.622 0.4027,-0.694 -0.1571,-0.057 -0.5007,0.143 -0.5761,0.335 -0.0294,0.075 -0.0304,-0.005 -0.0022,-0.177 0.0342,-0.207 0.0183,-0.324 -0.0476,-0.347 -0.1401,-0.051 -0.2672,0.172 -0.4851,0.851 -0.286,0.892 -0.2576,1.182 0.0701,0.708 z m 4.2483,1.772 c 0.0052,-0.316 0.069,-0.898 0.1414,-1.29 0.0431,-0.234 0.057,-0.474 0.031,-0.536 -0.0606,-0.142 -0.3069,-0.233 -0.34,-0.125 -0.0603,0.196 -0.1359,1.573 -0.0974,1.777 0.0472,0.249 0.2614,0.391 0.2649,0.174 z m 63.8004,23.879 c 1.263,0.295 1.858,0.338 2.704,0.194 1.601,-0.271 2.258,-1.773 1.342,-3.069 -0.195,-0.276 -0.803,-0.875 -1.349,-1.329 -0.878,-0.73 -1.328,-1.238 -1.275,-1.438 0.009,-0.037 0.133,-0.101 0.275,-0.142 0.207,-0.059 0.602,0.045 1.999,0.527 l 1.767,0.609 0.252,-0.31 c 0.139,-0.17 0.349,-0.523 0.467,-0.784 l 0.216,-0.473 -0.684,-0.312 c -0.375,-0.171 -1.416,-0.559 -2.31,-0.861 -1.441,-0.486 -1.694,-0.544 -2.433,-0.554 -0.926,-0.013 -1.894,0.238 -2.413,0.625 -0.685,0.51 -0.69,1.607 -0.008,2.407 0.146,0.173 0.68,0.7 1.189,1.175 1.306,1.22 1.526,1.689 0.856,1.839 -0.457,0.102 -1.414,-0.201 -2.479,-0.784 -0.859,-0.47 -1.726,-0.849 -1.749,-0.765 -0.005,0.02 -0.196,0.35 -0.423,0.733 -0.227,0.383 -0.39,0.727 -0.362,0.765 0.094,0.124 2.192,1.237 2.769,1.468 0.311,0.125 1.052,0.34 1.649,0.479 z M 48.1521,189.864 c -0.0382,-0.281 -0.1717,-0.287 -0.1946,-0.008 -0.0268,0.325 -1e-4,0.39 0.1178,0.285 0.0676,-0.06 0.0935,-0.153 0.0768,-0.277 z m 57.2339,19.467 c 2.863,-2.619 4.482,-4.195 4.408,-4.291 -0.092,-0.118 -2.779,-0.964 -2.909,-0.917 -0.056,0.02 -0.693,0.614 -1.413,1.317 -0.717,0.701 -1.542,1.493 -1.835,1.762 l -0.531,0.488 0.033,-0.469 c 0.05,-0.73 -0.022,-2.562 -0.137,-3.469 -0.086,-0.677 -0.157,-0.861 -0.409,-1.05 -0.638,-0.479 -4.579396,-1.76 -4.756796,-1.551 -0.0372,0.044 0.2827,0.318 0.7125,0.611 1.3864,0.944 1.588296,1.193 1.737296,2.151 0.072,0.46 0.21,1.942 0.308,3.299 0.098,1.364 0.204,2.522 0.235,2.566 0.091,0.126 1.221,0.644 2.026,0.929 l 0.742,0.262 z m 17.035,8.504 c 0.09,-0.02 0.348,-0.176 0.573,-0.345 l 0.409,-0.31 1.699,0.596 c 1.062,0.372 1.789,0.673 1.893,0.785 0.093,0.099 0.173,0.349 0.179,0.556 0.005,0.207 0.09,0.463 0.189,0.569 0.099,0.106 0.846,0.463 1.664,0.796 l 1.502,0.61 -0.017,-0.312 c -0.081,-1.463 -0.441,-7.579 -0.473,-8.045 -0.061,-0.882 -0.169,-0.994 -1.379,-1.45 -1.423,-0.536 -2.285,-0.653 -2.755,-0.377 -0.592,0.346 -5.039,4.133 -6.253,5.322 l -0.504,0.493 0.738,0.318 c 0.962,0.413 2.324,0.84 2.535,0.794 z m 2.695,-2.292 c -0.022,-0.086 0.305,-0.494 0.729,-0.909 0.425,-0.416 0.787,-0.813 0.805,-0.881 0.063,-0.239 0.301,-0.029 0.305,0.269 0.002,0.166 0.031,0.693 0.063,1.173 0.046,0.687 0.011,0.892 -0.162,0.955 -0.283,0.103 -1.681,-0.386 -1.74,-0.607 z M 109.6,212.932 c 0.094,-0.094 1.035,-1.536 2.094,-3.208 1.061,-1.678 1.992,-3.141 2.065,-3.247 l 0.134,-0.194 -1.424,-0.443 c -0.775,-0.242 -1.475,-0.416 -1.561,-0.39 -0.169,0.053 -4.048,6.06 -4.144,6.416 -0.058,0.217 -0.045,0.224 1.295,0.725 1.307,0.488 1.378,0.504 1.541,0.341 z M 52.515,190.45 c 0.251,-0.354 0.2747,-0.486 0.0991,-0.549 -0.1225,-0.045 -0.178,-0.002 -0.3077,0.233 -0.1218,0.221 -0.2019,0.756 -0.105,0.701 0.0377,-0.021 0.1788,-0.195 0.3136,-0.385 z m 29.615,5.42 c 0.6405,-0.638 1.4281,-1.56 1.4705,-1.722 0.0344,-0.132 -0.0387,-0.125 -0.4053,0.042 -0.8242,0.376 -1.5324,1.139 -1.5598,1.68 -0.008,0.158 0.0225,0.3 0.0677,0.315 0.0453,0.015 0.2373,-0.126 0.4269,-0.315 z m -4.6455,-1.428 c 0.2741,0.006 0.5653,-0.316 0.6859,-0.759 0.1807,-0.664 0.0925,-0.858 -0.1499,-0.332 -0.1125,0.244 -0.2889,0.502 -0.3919,0.574 -0.6102,0.421 -0.7166,-0.744 -0.1104,-1.188 0.2171,-0.159 0.2999,-0.171 0.4845,-0.066 0.2796,0.159 0.3332,0.031 0.0949,-0.227 -0.3918,-0.423 -0.8475,-0.357 -1.1147,0.159 -0.2503,0.483 -0.2605,1.009 -0.027,1.419 0.218,0.383 0.2582,0.415 0.5285,0.42 z m 2.8214,0.585 c 0.2772,-0.311 0.3792,-0.536 0.3637,-0.802 -0.0137,-0.235 -0.0272,-0.247 -0.1346,-0.127 -0.6286,0.702 -0.8921,0.806 -1.0142,0.401 -0.1403,-0.464 0.3742,-1.258 0.7386,-1.139 0.1068,0.035 0.2175,0.134 0.2459,0.221 0.0809,0.246 0.2143,0.075 0.1435,-0.184 -0.0508,-0.187 -0.1372,-0.256 -0.4431,-0.355 -0.3242,-0.106 -0.415,-0.096 -0.6323,0.069 -0.5356,0.407 -0.5807,1.561 -0.0748,1.959 0.2484,0.195 0.6116,0.176 0.8073,-0.043 z m 5.0618,2.08 c 0.469,0.015 1.1639,-0.993 0.923,-1.34 -0.1435,-0.206 -0.2456,-0.131 -0.4809,0.355 -0.3827,0.791 -0.8565,0.698 -0.7082,-0.134 0.1107,-0.622 0.3271,-0.828 0.7597,-0.721 0.4983,0.123 0.586,-0.102 0.1679,-0.43 -0.4574,-0.359 -0.8127,-0.337 -1.096,0.065 -0.3569,0.507 -0.3132,1.575 0.0845,2.028 0.1645,0.187 0.1313,0.17 0.35,0.177 z m 2.937,0.731 c 0.2342,-0.093 0.3537,-0.24 0.4964,-0.608 0.239,-0.617 0.1093,-0.866 -0.2131,-0.412 -0.2851,0.402 -0.6217,0.682 -0.7619,0.635 -0.1481,-0.049 -0.2652,-0.655 -0.1832,-0.944 0.1001,-0.353 0.5361,-0.534 1.0762,-0.444 l 0.4641,0.077 -0.3445,-0.321 c -0.6023,-0.562 -1.0471,-0.463 -1.4962,0.327 -0.2413,0.425 -0.2152,0.851 0.0804,1.302 0.3172,0.484 0.4713,0.552 0.8818,0.388 z m -4.5313,-3.933 c 0.0939,-0.014 0.1494,-0.091 0.1337,-0.183 -0.0219,-0.129 -0.0601,-0.149 -0.2046,-0.108 -0.1843,0.052 -0.2971,0.253 -0.1651,0.293 0.0416,0.013 0.1477,0.012 0.236,-0.002 z m 25.4616,2.319 c 0.667,-0.229 0.815,-0.466 1.225,-1.976 0.486,-1.786 0.502,-1.752 -1.014,-2.222 -0.884,-0.274 -1.08,-0.305 -1.387,-0.228 -0.354,0.09 -0.36,0.104 -0.753,1.549 -0.388,1.428 -0.391,1.468 -0.155,1.781 0.133,0.177 0.563,0.5 0.956,0.718 0.889,0.495 0.838,0.477 1.128,0.378 z m -1.512,-0.905 c -0.264,-0.25 -0.098,-1.746 0.275,-2.488 0.313,-0.626 0.56,-0.682 1.663,-0.376 l 0.715,0.199 -0.135,0.563 c -0.075,0.31 -0.302,0.971 -0.506,1.468 -0.316,0.77 -0.419,0.917 -0.691,0.982 -0.377,0.09 -1.045,-0.086 -1.321,-0.348 z m 6.567,2.371 c 0.476,-0.103 0.845,-0.603 1.234,-1.672 0.323,-0.891 0.356,-1.829 0.077,-2.157 -0.139,-0.165 -0.41,-0.265 -1.366,-0.503 -1.029,-0.257 -1.218,-0.278 -1.468,-0.16 -0.517,0.242 -0.954,1.616 -0.862,2.708 0.039,0.457 0.487,0.979 1.241,1.44 0.751,0.46 0.689,0.441 1.144,0.344 z m -1.378,-0.837 c -0.658,-0.374 -0.713,-0.696 -0.305,-1.778 0.517,-1.372 1.01,-1.621 2.196,-1.101 0.457,0.201 0.46,0.207 0.382,0.766 -0.043,0.311 -0.219,0.963 -0.39,1.449 -0.278,0.787 -0.351,0.893 -0.668,0.966 -0.406,0.093 -0.612,0.042 -1.216,-0.302 z m 7.048,2.494 c 0.193,-0.069 0.456,-0.231 0.585,-0.361 0.307,-0.31 0.881,-1.937 0.932,-2.64 0.059,-0.826 -0.057,-0.944 -1.304,-1.336 -1.319,-0.416 -1.838,-0.429 -2.049,-0.056 -0.651,1.144 -0.917,2.719 -0.556,3.3 0.137,0.22 0.447,0.44 1.037,0.734 0.466,0.232 0.883,0.436 0.927,0.453 0.043,0.017 0.236,-0.026 0.428,-0.094 z m -1.873,-1.106 c -0.148,-0.271 -0.121,-0.536 0.161,-1.604 0.229,-0.863 0.401,-1.298 0.531,-1.342 0.233,-0.078 1.615,0.142 1.938,0.31 0.205,0.107 0.195,0.258 -0.085,1.31 -0.49,1.84 -0.777,2.121 -1.845,1.805 -0.416,-0.123 -0.559,-0.221 -0.7,-0.479 z m 7.625,2.686 0.6,-0.185 0.387,-1.699 c 0.48,-2.109 0.484,-2.101 -1.212,-2.572 -1.897,-0.528 -2.108,-0.436 -2.503,1.084 -0.408,1.566 -0.194,2.173 1.065,2.991 0.893,0.579 0.967,0.596 1.663,0.381 z m -1.807,-0.809 c -0.224,-0.129 -0.392,-0.342 -0.442,-0.56 -0.133,-0.581 0.074,-1.697 0.415,-2.237 0.408,-0.647 0.723,-0.7 1.837,-0.306 l 0.827,0.293 -0.328,1.262 c -0.18,0.694 -0.439,1.406 -0.574,1.579 -0.355,0.456 -0.905,0.445 -1.735,-0.031 z m -54.6731,-16.053 0.3416,-0.131 0.3606,-1.105 c 0.5445,-1.67 0.4901,-1.849 -0.6391,-2.12 -0.5693,-0.137 -0.6492,-0.137 -0.8551,-0.003 -0.2733,0.177 -0.5806,0.939 -0.7715,1.911 l -0.1258,0.641 0.5232,0.422 c 0.2894,0.234 0.594,0.446 0.6761,0.47 0.0822,0.025 0.3026,-0.014 0.4901,-0.085 z m -1.1615,-0.608 c -0.288,-0.328 0.2954,-2.291 0.7164,-2.414 0.0974,-0.028 0.3585,-0.001 0.5806,0.062 0.3177,0.088 0.4157,0.149 0.4532,0.282 0.0263,0.094 -0.0786,0.621 -0.2333,1.173 -0.3465,1.237 -0.419,1.321 -0.9957,1.151 -0.2215,-0.066 -0.456,-0.18 -0.5214,-0.254 z m 8.2643,2.788 c 0.3097,-0.12 0.5358,-0.609 0.8496,-1.84 0.2108,-0.826 0.2259,-0.992 0.1118,-1.223 -0.1205,-0.244 -0.1884,-0.285 -0.791,-0.474 -1.1389,-0.357 -1.3478,-0.184 -1.7938,1.483 l -0.2781,1.039 0.5848,0.479 c 0.6642,0.543 0.9716,0.668 1.3167,0.536 z m -1.3176,-0.793 c -0.2481,-0.368 0.2785,-2.3 0.6616,-2.429 0.0861,-0.029 0.4379,0.008 0.7828,0.083 l 0.6305,0.137 -0.1796,0.592 c -0.4863,1.607 -0.6002,1.895 -0.7797,1.971 -0.2587,0.111 -0.9514,-0.11 -1.1158,-0.354 z m 12.1724,4.079 c 0.4428,-0.024 0.6283,-0.367 1.0282,-1.905 l 0.357,-1.374 -1.0973,-0.329 c -1.4435,-0.434 -1.4276,-0.444 -1.8943,1.153 -0.3748,1.281 -0.3652,1.446 0.1048,1.82 0.5903,0.469 1.0401,0.66 1.5016,0.635 z m -1.3015,-0.9 c -0.1186,-0.182 -0.1087,-0.375 0.0533,-1.047 0.209,-0.866 0.4776,-1.36 0.8155,-1.498 0.1576,-0.064 0.3065,-0.042 0.6583,0.1 0.6934,0.28 0.707,0.357 0.2918,1.67 -0.3227,1.02 -0.3853,1.146 -0.593,1.195 -0.3602,0.086 -1.0524,-0.152 -1.2259,-0.42 z m 5.4791,2.132 c 0.4607,-0.124 1.01,-1.241 1.1908,-2.422 0.1411,-0.921 0.0635,-1.007 -1.2316,-1.367 -1.1815,-0.328 -1.2985,-0.307 -1.5768,0.289 -0.2087,0.446 -0.3893,1.659 -0.3342,2.247 0.037,0.393 0.263,0.627 0.9374,0.966 0.5539,0.279 0.7925,0.347 1.0144,0.287 z m -1.4507,-0.887 c -0.1568,-0.16 -0.1423,-0.281 0.161,-1.352 0.4332,-1.529 0.5675,-1.605 1.8733,-1.056 l 0.383,0.161 -0.3324,0.978 c -0.1829,0.538 -0.4129,1.165 -0.5111,1.392 l -0.1784,0.414 -0.6132,-0.181 c -0.3595,-0.106 -0.6806,-0.252 -0.7822,-0.356 z m 6.034504,2.141 0.372,-0.11 0.4532,-1.625 0.4523,-1.622 -1.188,-0.356 C 95.104,188.024 94.8247,187.968 94.6627,188.032 c -0.2635,0.103 -0.5955,0.866 -0.8474,1.948 -0.2002,0.86 -0.1999,0.864 0.0982,1.199 0.5778,0.65 1.4509,1.011 2.037404,0.838 z M 94.3464,191.181 c -0.1569,-0.157 -0.1511,-0.308 0.0426,-1.125 0.2463,-1.038 0.5584,-1.58 0.9344,-1.621 0.1329,-0.015 0.445304,0.059 0.723304,0.172 0.6694,0.27 0.6904,0.432 0.2323,1.812 -0.3144,0.947 -0.4028,1.118 -0.602404,1.162 -0.308,0.067 -1.1015,-0.172 -1.3302,-0.4 z m 6.1536,2.276 c 0.24,-0.05 0.302,-0.186 0.738,-1.636 0.608,-2.022 0.627,-1.99 -1.425796,-2.493 -1.0381,-0.255 -1.206,-0.133 -1.5428,1.112 -0.2708,0.999 -0.2593,1.449 0.0469,1.874 0.4987,0.691 1.593,1.266 2.183696,1.143 z m -1.732496,-0.907 c -0.2928,-0.152 -0.1672,-1.249 0.2462,-2.158 0.3514,-0.773 0.6263,-0.879 1.463296,-0.566 0.309,0.116 0.591,0.272 0.626,0.347 0.079,0.164 -0.241,1.371 -0.595,2.243 l -0.256,0.634 -0.650696,-0.202 c -0.356,-0.111 -0.7307,-0.245 -0.8337,-0.298 z M 54.175,179.543 c 0.3263,-0.161 0.5131,-0.544 0.8101,-1.662 0.2755,-1.036 0.2562,-1.082 -0.5353,-1.302 -0.6324,-0.175 -0.8282,-0.163 -1.0122,0.063 -0.1406,0.172 -0.491,1.267 -0.5879,1.836 -0.0699,0.411 -0.0147,0.503 0.5352,0.891 0.4495,0.317 0.4849,0.324 0.7901,0.174 z m -0.9703,-0.653 c -0.1219,-0.167 -0.116,-0.211 0.1402,-1.043 l 0.2672,-0.868 0.2475,-0.104 c 0.274,-0.115 0.8038,-0.018 0.9142,0.168 0.0671,0.113 -0.3067,1.425 -0.5548,1.946 l -0.1403,0.295 -0.3741,-0.11 c -0.2608,-0.076 -0.4107,-0.162 -0.4999,-0.284 z m 3.8941,1.468 c 0.3143,-0.164 0.6254,-0.856 0.8111,-1.804 0.0832,-0.424 0.1246,-0.815 0.0922,-0.868 -0.0324,-0.054 -0.2881,-0.174 -0.5673,-0.267 -1.15,-0.384 -1.3074,-0.291 -1.6209,0.955 -0.2442,0.97 -0.2297,1.373 0.06,1.637 0.4251,0.386 0.8945,0.52 1.2249,0.347 z m -1.1299,-0.617 c -0.1029,-0.125 -0.0888,-0.219 0.1458,-0.975 0.3819,-1.229 0.5526,-1.373 1.3026,-1.09 l 0.3782,0.142 -0.2658,0.851 c -0.1463,0.468 -0.3306,0.982 -0.4092,1.141 l -0.143,0.29 -0.4484,-0.11 c -0.3004,-0.074 -0.4834,-0.155 -0.5601,-0.249 z m 4.081,1.581 c 0.3199,-0.124 0.6522,-0.789 0.9002,-1.803 0.2456,-1.003 0.2113,-1.08 -0.5797,-1.299 -0.8034,-0.222 -0.9922,-0.195 -1.1711,0.167 -0.2061,0.417 -0.6505,2.121 -0.5823,2.234 0.0617,0.102 0.9424,0.721 1.0953,0.769 0.0501,0.015 0.2019,-0.015 0.3376,-0.068 z m -0.9529,-0.613 c -0.1708,-0.097 -0.1513,-0.522 0.0546,-1.199 0.324,-1.064 0.6065,-1.286 1.2875,-1.005 l 0.3772,0.156 -0.1715,0.565 c -0.0943,0.311 -0.2801,0.843 -0.4127,1.181 l -0.2413,0.616 -0.3872,-0.122 c -0.2122,-0.067 -0.44,-0.153 -0.5066,-0.192 z m 13.6826,4.255 c 0.3303,-0.231 0.6332,-0.891 0.7821,-1.705 0.2249,-1.23 0.1644,-1.338 -0.9097,-1.635 -0.5107,-0.142 -0.6468,-0.151 -0.8985,-0.058 l -0.296,0.109 -0.2813,0.978 c -0.3726,1.295 -0.3492,1.524 0.2062,1.984 0.5757,0.478 1.0273,0.584 1.3972,0.326 z m -1.3868,-0.541 c -0.1264,-0.141 -0.1095,-0.25 0.1991,-1.293 0.1853,-0.626 0.3652,-1.151 0.4,-1.167 0.0349,-0.015 0.3768,0.036 0.7613,0.115 l 0.7031,0.143 -0.4073,1.232 c -0.3622,1.095 -0.4294,1.238 -0.6021,1.285 -0.2537,0.069 -0.8782,-0.118 -1.0541,-0.315 z m 8.6598,2.762 c 0.495,-0.313 1.0249,-1.766 1.0015,-2.746 -0.0089,-0.376 -0.2828,-0.565 -1.1701,-0.811 -0.5456,-0.151 -0.6422,-0.154 -0.9473,-0.022 -0.3236,0.139 -0.3478,0.177 -0.5341,0.818 -0.236,0.813 -0.3205,1.643 -0.1975,1.943 0.1213,0.295 0.7004,0.716 1.1887,0.863 0.3311,0.1 0.4414,0.093 0.6588,-0.045 z m -1.303,-0.584 c -0.0748,-0.081 -0.1352,-0.295 -0.1342,-0.476 0.0024,-0.421 0.4871,-2.112 0.6119,-2.136 0.052,-0.01 0.3973,0.042 0.7686,0.116 l 0.6788,0.136 -0.1294,0.683 c -0.159,0.839 -0.5102,1.721 -0.7574,1.901 -0.2118,0.155 -0.8063,0.026 -1.0383,-0.224 z m -15.5361,-4.402 c 0.3123,-0.132 0.3859,-0.287 0.7186,-1.506 0.3709,-1.359 0.3815,-1.331 -0.6114,-1.644 -0.6665,-0.21 -0.7056,-0.213 -0.9609,-0.091 l -0.2655,0.128 -0.2423,0.925 c -0.2878,1.1 -0.26,1.422 0.1585,1.813 0.35,0.328 0.9045,0.501 1.203,0.375 z m -1.1414,-0.595 c -0.1072,-0.126 -0.0938,-0.25 0.1085,-1.002 0.379,-1.41 0.5194,-1.54 1.3324,-1.231 l 0.4551,0.173 -0.3825,1.066 c -0.2104,0.587 -0.417,1.108 -0.459,1.158 -0.1646,0.195 -0.8382,0.09 -1.0545,-0.164 z m 39.9119,10.837 c 0.026,-0.095 -0.006,-0.188 -0.071,-0.207 -0.066,-0.018 -0.14,0.044 -0.166,0.139 -0.026,0.094 0.005,0.187 0.071,0.206 0.065,0.019 0.139,-0.043 0.166,-0.138 z M 57.5478,174.474 c 0.1389,-0.09 0.1802,-0.094 0.1564,-0.016 -0.0572,0.186 0.1927,0.313 1.0789,0.544 l 0.8775,0.229 0.102,-0.494 c 0.0768,-0.372 0.0729,-0.573 -0.0158,-0.816 l -0.1173,-0.322 0.2628,-0.303 c 0.2909,-0.336 0.5424,-0.78 0.8224,-1.453 l 0.1846,-0.444 0.4659,0.12 0.4684,0.119 -0.4218,-0.043 c -0.2311,-0.024 -0.4398,-0.034 -0.4642,-0.021 -0.0243,0.012 -0.1454,0.327 -0.269,0.7 -0.3178,0.958 -0.3887,0.89 1.4652,1.38 l 1.5198,0.401 0.3991,-1.515 c 0.2191,-0.832 0.3983,-1.636 0.3984,-1.79 5e-4,-0.576 -0.3194,-0.779 -1.7022,-1.09 -1.1368,-0.255 -1.1853,-0.243 -1.4364,0.336 -0.1774,0.41 -0.4743,0.742 -0.6301,0.706 -0.1286,-0.03 -0.0447,-0.133 0.1588,-0.195 0.176,-0.053 0.2152,-0.118 0.3696,-0.615 l 0.1723,-0.554 -1.4682,-0.318 c -1.6131,-0.349 -3.2004,-0.603 -3.4303,-0.55 -0.2813,0.064 -0.4505,0.328 -0.7515,1.172 l -0.1571,0.441 1.5427,0.356 c 1.1518,0.266 1.6313,0.352 1.7976,0.321 l 0.2268,-0.042 -0.1988,0.248 c -0.118,0.147 -0.2719,0.478 -0.379,0.815 -0.1569,0.494 -0.1686,0.625 -0.0906,1.001 l 0.0901,0.434 -0.2858,0.25 c -0.157,0.138 -0.3171,0.242 -0.3559,0.233 -0.1038,-0.027 -0.0844,-0.048 0.2425,-0.263 0.1643,-0.108 0.3098,-0.232 0.3233,-0.276 0.0436,-0.143 -0.2469,-0.316 -0.9033,-0.542 -0.4177,-0.143 -0.5196,-0.193 -0.2951,-0.143 0.7715,0.17 0.9424,0.04 1.1466,-0.874 l 0.1358,-0.607 -1.5453,-0.367 -1.5175,-0.36 -0.1552,0.575 c -0.0855,0.317 -0.267,0.977 -0.4035,1.465 -0.4173,1.495 -0.3353,1.623 1.3117,2.024 1.0416,0.253 1.0938,0.259 1.2745,0.143 z m 1.3034,-0.303 c 0.0777,0.002 0.178,0.029 0.2228,0.06 0.045,0.032 -0.0187,0.03 -0.1414,-0.003 -0.1224,-0.033 -0.1591,-0.058 -0.0815,-0.057 z m 0.2731,-3.987 c -0.0969,-0.174 -0.0968,-0.174 0.0411,-0.044 0.0761,0.072 0.1316,0.153 0.1231,0.181 -0.0246,0.08 -0.0598,0.051 -0.1641,-0.137 z m 3.3705,5.596 c 0.5121,-0.172 0.6522,-0.324 0.8948,-0.973 l 0.2271,-0.608 -1.3919,-0.4 c -1.8082,-0.52 -2.3024,-0.567 -2.4037,-0.235 -0.0279,0.091 0.004,0.252 0.0708,0.358 0.094,0.149 0.0991,0.31 0.0223,0.708 -0.0579,0.3 -0.0656,0.552 -0.0183,0.602 0.0447,0.047 0.5848,0.207 1.2042,0.357 1.0078,0.245 1.1666,0.267 1.3947,0.191 z m -9.999,-3.361 c 1.0775,-0.867 1.705,-2.512 1.5077,-3.948 -0.0798,-0.581 -0.4282,-0.988 -0.6287,-0.737 -0.0404,0.051 -0.0666,0.407 -0.0582,0.793 0.0259,1.195 -0.1447,2.108 -0.3995,2.135 -0.0921,0.009 -0.1272,0.067 -0.145,0.239 -0.0161,0.154 -0.131,0.378 -0.3597,0.702 -0.3421,0.483 -0.4382,0.688 -0.4198,0.895 0.0162,0.182 0.2179,0.151 0.5032,-0.079 z m -0.8635,-0.727 c 0.9298,-0.52 1.5796,-2.72 1.045,-3.532 -0.1542,-0.234 -0.3633,-0.251 -0.4586,-0.039 -0.0393,0.088 -0.0598,0.444 -0.0456,0.792 0.033,0.808 -0.074,1.154 -0.5918,1.916 -0.5018,0.738 -0.5621,0.904 -0.3482,0.958 0.0864,0.022 0.266,-0.021 0.3992,-0.096 z m -0.7922,-0.727 c 0.2604,-0.152 0.6248,-0.702 0.766,-1.156 0.2076,-0.667 0.1125,-1.535 -0.1742,-1.603 -0.2318,-0.054 -0.3772,0.215 -0.3853,0.713 -0.0112,0.69 -0.049,0.827 -0.3462,1.255 -0.277,0.4 -0.4083,0.697 -0.3506,0.795 0.0667,0.114 0.2928,0.112 0.4903,-0.004 z m -0.8298,-0.576 c 0.641,-0.388 0.9285,-1.788 0.394,-1.913 -0.2779,-0.065 -0.401,0.067 -0.4116,0.442 -0.0107,0.377 -0.0917,0.645 -0.2843,0.941 -0.2011,0.309 -0.2041,0.537 -0.0075,0.585 0.085,0.021 0.2243,-0.004 0.3094,-0.055 z m 34.5715,4.28 c 2.1777,0.052 3.9769,-0.79 4.8843,-2.305 1.4536,-2.428 0.4823,-4.878 -2.3461,-6.054 -0.4359,-0.181 -0.9551,-0.307 -2.0836,-0.507 -1.3624,-0.242 -1.5463,-0.258 -2.2797,-0.194 -1.8625,0.161 -3.3431,0.945 -4.1707,2.195 -0.3122,0.472 -0.6267,1.472 -0.6462,2.056 -0.0587,1.755 1.3375,3.417 3.6164,4.258 0.6196,0.228 2.287,0.533 3.0256,0.551 z m -2.1709,-3.187 c -0.5914,-0.517 -0.6997,-0.991 -0.4349,-1.893 0.2459,-0.837 0.5567,-1.182 1.2413,-1.377 0.4687,-0.133 1.2832,-0.081 1.8496,0.118 0.4916,0.174 1.0455,0.888 1.0797,1.396 0.0397,0.59 -0.2899,1.347 -0.7877,1.81 -0.5409,0.503 -1.0266,0.609 -1.9216,0.421 -0.5588,-0.117 -0.6822,-0.174 -1.0264,-0.475 z m 15.972304,6.297 c 0.4705,0.03 1.1296,0.033 1.4636,0.005 l 0.609196,-0.05 0.297,-1.065 c 0.163,-0.585 0.274,-1.068 0.247,-1.074 -0.028,-0.005 -0.416,-0.023 -0.862,-0.039 -1.152896,-0.041 -3.850796,-0.623 -4.432796,-0.951 -0.909604,-0.513 -1.188904,-1.419 -0.776104,-2.498 0.3867,-1.011 1.125304,-1.502 2.315604,-1.534 1.0167,-0.027 3.123296,0.395 4.021296,0.811 0.38,0.175 0.729,0.327 0.776,0.336 0.047,0.01 0.197,-0.383 0.334,-0.874 l 0.248,-0.89 -0.711,-0.394 c -1.045,-0.577 -2.101096,-0.91 -3.918596,-1.239 -2.373604,-0.431 -3.688604,-0.342 -5.123504,0.331 -1.2762,0.598 -2.0095,1.467 -2.3799,2.815 -0.2562,0.932 -0.2529,1.31 0.0206,2.217 0.411,1.364 1.7188,2.539 3.6683,3.274 0.7046,0.265 3.205504,0.754 4.203304,0.819 z m 8.902796,0.391 0.44,-1.477 0.736,-0.291 c 0.406,-0.161 0.751,-0.25 0.764,-0.197 0.014,0.052 0.489,0.926 1.06,1.949 0.576,1.032 1.125,2.034 1.215,2.219 l 0.165,0.338 2.594,0.582 c 1.453,0.327 2.661,0.573 2.669,0.545 0.008,-0.029 -1.009,-1.623 -2.24,-3.515 l -2.188,-3.36 3.328,-1.37 c 1.862,-0.767 3.41,-1.428 3.419,-1.461 0.009,-0.032 -1.276,-0.294 -2.836,-0.578 l -2.781,-0.507 -0.6,0.303 c -0.356,0.179 -0.663,0.269 -0.759,0.223 -0.091,-0.044 -0.137,-0.033 -0.106,0.025 0.075,0.139 -2.153,1.052 -2.305,0.945 -0.073,-0.051 -0.096,-0.038 -0.058,0.032 0.059,0.113 -0.802,0.575 -1,0.536 -0.052,-0.01 0.313,-1.503 0.81,-3.315 l 0.9,-3.283 -2.295,-0.371 -2.248,-0.363 -1.781,6.421 -1.795,6.474 2.203,0.482 2.249,0.493 z m -32.848,-8.617 c 0.4033,-1.393 0.7668,-2.558 0.8085,-2.592 0.0972,-0.078 0.884,-0.213 1.4364,-0.246 0.2363,-0.013 0.7873,0.023 1.2258,0.08 l 0.8024,0.106 0.3088,-1.049 0.3083,-1.047 -0.4447,-0.027 c -0.8231,-0.05 -2.1398,0.05 -3.02,0.227 -0.0406,0.008 -0.0348,-0.116 0.0128,-0.277 l 0.0864,-0.291 -0.5459,-0.099 c -0.2988,-0.054 -1.032,-0.208 -1.6265,-0.342 l -1.0711,-0.24 -1.1362,3.802 -1.1416,3.82 1.4964,0.356 c 0.8336,0.198 1.5762,0.361 1.6431,0.36 0.0978,-0.001 0.2668,-0.502 0.8571,-2.541 z m 56.197,15.263 c 1.322,0.073 2.455,-0.053 3.412,-0.381 l 0.843,-0.288 0.629,-2.456 0.626,-2.448 -1.029,-1.007 -1.019,-0.996 1.321,-0.493 1.332,-0.496 0.463,-1.807 0.461,-1.803 -0.683,-0.616 c -0.375,-0.337 -1.039,-0.79 -1.477,-1.006 -1.487,-0.734 -2.212,-0.921 -5.79,-1.497 -3.095,-0.499 -3.244,-0.515 -4.289,-0.448 -1.415,0.091 -2.428,0.287 -3.256,0.628 l -0.675,0.278 -0.407,1.525 -0.407,1.529 0.796,1.054 c 0.633,0.838 0.764,1.084 0.615,1.158 -0.103,0.051 -0.676,0.245 -1.272,0.431 l -1.075,0.335 -0.582,2.179 -0.583,2.186 0.675,0.758 c 0.406,0.456 0.959,0.932 1.375,1.182 0.694,0.417 0.727,0.427 4.32,1.285 2.04,0.487 3.967,0.953 4.25,1.028 0.284,0.074 0.925,0.158 1.426,0.186 z m -5.617,-4.25 -1.125,-1.314 0.41,-0.118 c 0.226,-0.064 1.041,-0.311 1.816,-0.549 l 1.419,-0.436 1.195,1.207 1.211,1.223 -1.829,0.68 c -0.998,0.37 -1.842,0.665 -1.883,0.656 -0.04,-0.01 -0.588,-0.618 -1.214,-1.349 z m 4.964,-1.337 -1.408,-1.379 1.381,-0.414 c 0.766,-0.23 1.655,-0.495 1.974,-0.588 l 0.582,-0.17 -0.513,1.984 c -0.283,1.094 -0.531,1.985 -0.551,1.978 -0.02,-0.006 -0.682,-0.644 -1.465,-1.411 z m -6.145,-2.902 0.571,-2.161 2.548,-1.012 2.591,-1.029 1.788,1.733 1.823,1.768 -0.493,0.135 c -0.271,0.074 -1.775,0.509 -3.33,0.963 -1.538,0.449 -3.531,1.03 -4.437,1.294 l -1.634,0.475 z"
         id="path13005" /></g></g></svg>
