<?xml version="1.0" encoding="UTF-8" standalone="no"?>
<!-- Created with Inkscape (http://www.inkscape.org/) -->

<svg
   version="1.1"
   id="svg2"
   width="466.23471"
   height="141.28323"
   viewBox="0 0 466.23471 141.28323"
   sodipodi:docname="rock8_logo_traced_1.svg"
   xml:space="preserve"
   inkscape:version="1.2.2 (732a01da63, 2022-12-09)"
   xmlns:inkscape="http://www.inkscape.org/namespaces/inkscape"
   xmlns:sodipodi="http://sodipodi.sourceforge.net/DTD/sodipodi-0.dtd"
   xmlns="http://www.w3.org/2000/svg"
   xmlns:svg="http://www.w3.org/2000/svg"><defs
     id="defs6" /><sodipodi:namedview
     id="namedview4"
     pagecolor="#ffffff"
     bordercolor="#000000"
     borderopacity="0.25"
     inkscape:showpageshadow="2"
     inkscape:pageopacity="0.0"
     inkscape:pagecheckerboard="0"
     inkscape:deskcolor="#d1d1d1"
     showgrid="false"
     inkscape:zoom="2.0719178"
     inkscape:cx="280.65785"
     inkscape:cy="130.07273"
     inkscape:window-width="2223"
     inkscape:window-height="994"
     inkscape:window-x="752"
     inkscape:window-y="0"
     inkscape:window-maximized="0"
     inkscape:current-layer="g8" /><g
     inkscape:groupmode="layer"
     inkscape:label="Image"
     id="g8"
     transform="translate(-96.494255,-132.82405)"><rect
       style="opacity:1;fill:#8e6dff;fill-opacity:0.992157;stroke:none;stroke-width:0.472141;stroke-dasharray:none"
       id="rect6317"
       width="466.23471"
       height="141.28323"
       x="96.494255"
       y="132.82405"
       rx="10.607578"
       ry="5.0223751" /><path
       style="fill:#ffffff;fill-opacity:1;stroke:none;stroke-width:2"
       d="m 136.21864,182.36852 v 72.86356 h 24.74289 v -48.46194 c 5.30476,-4.09922 13.02166,-6.84161 25.58789,-6.85626 v -19.4224 c -10.89816,2.25403 -21.23163,4.65863 -25.41725,8.70267 v -6.48434 z"
       id="path1570"
       sodipodi:nodetypes="ccccccccc" /><path
       style="fill:#8e6dff;fill-opacity:1;stroke:none;stroke-width:2"
       id="path1626"
       sodipodi:type="arc"
       sodipodi:cx="228.19395"
       sodipodi:cy="218.3737"
       sodipodi:rx="15.187017"
       sodipodi:ry="16.893423"
       sodipodi:start="4.9765446"
       sodipodi:end="4.9712562"
       sodipodi:open="true"
       sodipodi:arc-type="arc"
       d="m 232.1592,202.06626 a 15.187017,16.893423 0 0 1 10.70021,20.69666 15.187017,16.893423 0 0 1 -18.59192,11.92984 15.187017,16.893423 0 0 1 -10.74938,-20.66512 15.187017,16.893423 0 0 1 18.5635,-11.98448" /><path
       id="path1629-4"
       style="fill:#fefefe;fill-opacity:1;stroke:#ffffff;stroke-width:1.5166;stroke-dasharray:none"
       d="m 228.30344,181.16666 c 26.26062,-1.3398 41.58504,16.17173 40.76829,37.90364 -0.90826,24.16695 -15.71752,37.66593 -40.99586,37.69383 -23.63545,0.0261 -40.46798,-15.64911 -40.87675,-37.80403 -0.39962,-21.65868 16.0779,-39.18337 40.88779,-37.79377"
       sodipodi:nodetypes="csssc" /><path
       id="path1629"
       style="fill:#8e6dff;stroke:#ffffff;stroke-width:0.630676;stroke-dasharray:none"
       d="m 228.92021,201.10576 c 9.62687,-0.51829 15.73956,8.01143 15.13353,17.65792 -0.83247,13.25096 -6.92378,17.63394 -15.218,17.56018 -10.1535,-0.0903 -15.11392,-8.88343 -15.1738,-17.61152 -0.0637,-9.27935 3.6738,-17.5413 15.17791,-17.60674"
       sodipodi:nodetypes="csssc" /><path
       id="path1629-4-6"
       style="opacity:1;fill:#fefefe;fill-opacity:1;stroke:none;stroke-width:1.5166;stroke-dasharray:none"
       d="m 315.65028,182.04956 c 9.87368,-0.50375 20.49391,2.38143 26.99889,6.42993 l -0.15105,63.59594 c -6.4802,3.96924 -17.1849,5.36369 -27.07541,5.5716 -25.54053,0.53688 -41.09627,-15.46114 -41.84204,-37.32139 -0.77035,-22.58079 13.77266,-40.12754 41.85308,-38.27641"
       sodipodi:nodetypes="cccssc" /><path
       id="path1629-0"
       style="opacity:1;fill:#8e6dff;stroke:none;stroke-width:0.646925;stroke-dasharray:none"
       d="m 342.56237,234.48922 c -8.66933,3.40335 -20.01371,3.11294 -25.99369,2.8382 -12.51231,-0.57487 -15.20697,-9.59508 -15.07704,-18.69747 0.12614,-8.83739 3.32511,-17.8878 16.39323,-18.57195 6.06499,-1.65788 16.74725,-0.45003 24.95498,3.66743 z"
       sodipodi:nodetypes="cssccc" /><path
       style="opacity:1;fill:#ffffff;fill-opacity:1;stroke:none;stroke-width:0.5;stroke-dasharray:none"
       d="m 355.15059,151.14129 v 104.77335 h 25.25481 v -23.37777 l 7.16691,-7.1669 19.62367,30.20339 h 27.3025 L 402.92997,212.06 433.13336,181.8566 h -29.52083 l -23.12181,23.12181 v -53.83712 z"
       id="path6132" /><path
       style="opacity:1;fill:#ffffff;fill-opacity:1;stroke:none;stroke-width:0.5;stroke-dasharray:none"
       d="m 451.90383,199.94451 -11.26228,9.55588 v 32.42172 c 4.96967,7.06958 11.89074,13.07792 20.94203,12.89129 l 35.54002,0.51193 c 8.9822,-1.18902 17.16101,-6.53081 20.23291,-11.81157 v -34.01337 l -10.7137,-10.7137 10.27511,-10.2751 v -24.7429 c -4.68953,-7.65222 -12.86093,-11.53242 -23.00116,-13.27972 h -30.06808 c -8.62545,2.52371 -16.95667,5.50978 -22.44715,12.95987 v 23.1857 z"
       id="path6134"
       sodipodi:nodetypes="ccccccccccccccc" /><path
       style="opacity:1;fill:#8e6dff;fill-opacity:0.992157;stroke:none;stroke-width:0.5;stroke-dasharray:none"
       d="m 458.21753,189.70607 c 0.34129,-0.8532 21.07412,-21.07412 21.07412,-21.07412 l 20.1356,20.1356 -41.20972,33.70153 z"
       id="path6136" /><path
       style="opacity:1;fill:#8e6dff;fill-opacity:0.992157;stroke:none;stroke-width:0.518237;stroke-dasharray:none"
       d="m 464.3606,223.78285 15.38722,-13.08798 13.70701,13.70701 -15.0335,15.0335 z"
       id="path6261" /><path
       style="opacity:1;fill:#8e6dff;fill-opacity:0.992157;stroke:none;stroke-width:0.5;stroke-dasharray:none"
       d="m 483.81363,208.13526 16.21086,-13.65125 v 29.17955 z"
       id="path6263" /></g></svg>
